<?xml version="1.0" encoding="UTF-8" standalone="no"?>
<!DOCTYPE svg PUBLIC "-//W3C//DTD SVG 1.1//EN"
 "http://www.w3.org/Graphics/SVG/1.1/DTD/svg11.dtd">
<!-- Generated by graphviz version 2.40.1 (20161225.0304)
 -->
<!-- Title: public.starsearch_threads Pages: 1 -->
<svg width="1335pt" height="2116pt"
 viewBox="0.00 0.00 1335.00 2116.00" xmlns="http://www.w3.org/2000/svg" xmlns:xlink="http://www.w3.org/1999/xlink">
<g id="graph0" class="graph" transform="scale(1 1) rotate(0) translate(4 2112)">
<title>public.starsearch_threads</title>
<polygon fill="#ffffff" stroke="transparent" points="-4,4 -4,-2112 1331,-2112 1331,4 -4,4"/>
<!-- public.starsearch_threads -->
<g id="node1" class="node">
<title>public.starsearch_threads</title>
<polygon fill="#efefef" stroke="transparent" points="253,-897.5 253,-932.5 570,-932.5 570,-897.5 253,-897.5"/>
<polygon fill="none" stroke="#000000" points="253,-897.5 253,-932.5 570,-932.5 570,-897.5 253,-897.5"/>
<text text-anchor="start" x="259.8501" y="-910.3" font-family="Arial Bold" font-size="18.00" fill="#000000">public.starsearch_threads</text>
<text text-anchor="start" x="465.8961" y="-910.3" font-family="Arial" font-size="14.00" fill="#000000"> </text>
<text text-anchor="start" x="469.7867" y="-910.3" font-family="Arial" font-size="14.00" fill="#666666">[BASE TABLE]</text>
<polygon fill="none" stroke="#000000" points="253,-867.5 253,-897.5 570,-897.5 570,-867.5 253,-867.5"/>
<text text-anchor="start" x="260" y="-878.9" font-family="Arial" font-size="14.00" fill="#000000">id </text>
<text text-anchor="start" x="274.7798" y="-878.9" font-family="Arial" font-size="14.00" fill="#666666">[uuid]</text>
<polygon fill="none" stroke="#000000" points="253,-837.5 253,-867.5 570,-867.5 570,-837.5 253,-837.5"/>
<text text-anchor="start" x="260" y="-848.9" font-family="Arial" font-size="14.00" fill="#000000">created_at </text>
<text text-anchor="start" x="330.028" y="-848.9" font-family="Arial" font-size="14.00" fill="#666666">[timestamp without time zone]</text>
<polygon fill="none" stroke="#000000" points="253,-807.5 253,-837.5 570,-837.5 570,-807.5 253,-807.5"/>
<text text-anchor="start" x="260" y="-818.9" font-family="Arial" font-size="14.00" fill="#000000">updated_at </text>
<text text-anchor="start" x="333.9326" y="-818.9" font-family="Arial" font-size="14.00" fill="#666666">[timestamp without time zone]</text>
<polygon fill="none" stroke="#000000" points="253,-777.5 253,-807.5 570,-807.5 570,-777.5 253,-777.5"/>
<text text-anchor="start" x="260" y="-788.9" font-family="Arial" font-size="14.00" fill="#000000">archived_at </text>
<text text-anchor="start" x="336.244" y="-788.9" font-family="Arial" font-size="14.00" fill="#666666">[timestamp without time zone]</text>
<polygon fill="none" stroke="#000000" points="253,-747.5 253,-777.5 570,-777.5 570,-747.5 253,-747.5"/>
<text text-anchor="start" x="260" y="-758.9" font-family="Arial" font-size="14.00" fill="#000000">deleted_at </text>
<text text-anchor="start" x="329.2566" y="-758.9" font-family="Arial" font-size="14.00" fill="#666666">[timestamp without time zone]</text>
<polygon fill="none" stroke="#000000" points="253,-717.5 253,-747.5 570,-747.5 570,-717.5 253,-717.5"/>
<text text-anchor="start" x="260" y="-728.9" font-family="Arial" font-size="14.00" fill="#000000">is_publicly_viewable </text>
<text text-anchor="start" x="390.6802" y="-728.9" font-family="Arial" font-size="14.00" fill="#666666">[boolean]</text>
<polygon fill="none" stroke="#000000" points="253,-687.5 253,-717.5 570,-717.5 570,-687.5 253,-687.5"/>
<text text-anchor="start" x="260" y="-698.9" font-family="Arial" font-size="14.00" fill="#000000">public_link </text>
<text text-anchor="start" x="329.23" y="-698.9" font-family="Arial" font-size="14.00" fill="#666666">[text]</text>
<polygon fill="none" stroke="#000000" points="253,-657.5 253,-687.5 570,-687.5 570,-657.5 253,-657.5"/>
<text text-anchor="start" x="260" y="-668.9" font-family="Arial" font-size="14.00" fill="#000000">title </text>
<text text-anchor="start" x="285.6676" y="-668.9" font-family="Arial" font-size="14.00" fill="#666666">[varchar(255)]</text>
<polygon fill="none" stroke="#000000" points="253,-627.5 253,-657.5 570,-657.5 570,-627.5 253,-627.5"/>
<text text-anchor="start" x="260" y="-638.9" font-family="Arial" font-size="14.00" fill="#000000">thread_summary </text>
<text text-anchor="start" x="368.9018" y="-638.9" font-family="Arial" font-size="14.00" fill="#666666">[text]</text>
<polygon fill="none" stroke="#000000" stroke-width="3" points="251,-626.5 251,-934.5 571,-934.5 571,-626.5 251,-626.5"/>
</g>
<!-- public.starsearch_user_threads -->
<g id="node2" class="node">
<title>public.starsearch_user_threads</title>
<polygon fill="#efefef" stroke="transparent" points="686,-1924.5 686,-1959.5 1048,-1959.5 1048,-1924.5 686,-1924.5"/>
<polygon fill="none" stroke="#000000" points="686,-1924.5 686,-1959.5 1048,-1959.5 1048,-1924.5 686,-1924.5"/>
<text text-anchor="start" x="692.8447" y="-1937.3" font-family="Arial Bold" font-size="18.00" fill="#000000">public.starsearch_user_threads</text>
<text text-anchor="start" x="943.9015" y="-1937.3" font-family="Arial" font-size="14.00" fill="#000000"> </text>
<text text-anchor="start" x="947.7921" y="-1937.3" font-family="Arial" font-size="14.00" fill="#666666">[BASE TABLE]</text>
<polygon fill="none" stroke="#000000" points="686,-1894.5 686,-1924.5 1048,-1924.5 1048,-1894.5 686,-1894.5"/>
<text text-anchor="start" x="693" y="-1905.9" font-family="Arial" font-size="14.00" fill="#000000">id </text>
<text text-anchor="start" x="707.7798" y="-1905.9" font-family="Arial" font-size="14.00" fill="#666666">[uuid]</text>
<polygon fill="none" stroke="#000000" points="686,-1864.5 686,-1894.5 1048,-1894.5 1048,-1864.5 686,-1864.5"/>
<text text-anchor="start" x="693" y="-1875.9" font-family="Arial" font-size="14.00" fill="#000000">created_at </text>
<text text-anchor="start" x="763.028" y="-1875.9" font-family="Arial" font-size="14.00" fill="#666666">[timestamp without time zone]</text>
<polygon fill="none" stroke="#000000" points="686,-1834.5 686,-1864.5 1048,-1864.5 1048,-1834.5 686,-1834.5"/>
<text text-anchor="start" x="693" y="-1845.9" font-family="Arial" font-size="14.00" fill="#000000">updated_at </text>
<text text-anchor="start" x="766.9326" y="-1845.9" font-family="Arial" font-size="14.00" fill="#666666">[timestamp without time zone]</text>
<polygon fill="none" stroke="#000000" points="686,-1804.5 686,-1834.5 1048,-1834.5 1048,-1804.5 686,-1804.5"/>
<text text-anchor="start" x="693" y="-1815.9" font-family="Arial" font-size="14.00" fill="#000000">deleted_at </text>
<text text-anchor="start" x="762.2566" y="-1815.9" font-family="Arial" font-size="14.00" fill="#666666">[timestamp without time zone]</text>
<polygon fill="none" stroke="#000000" points="686,-1774.5 686,-1804.5 1048,-1804.5 1048,-1774.5 686,-1774.5"/>
<text text-anchor="start" x="693" y="-1785.9" font-family="Arial" font-size="14.00" fill="#000000">starsearch_thread_id </text>
<text text-anchor="start" x="828.3688" y="-1785.9" font-family="Arial" font-size="14.00" fill="#666666">[uuid]</text>
<polygon fill="none" stroke="#000000" points="686,-1744.5 686,-1774.5 1048,-1774.5 1048,-1744.5 686,-1744.5"/>
<text text-anchor="start" x="693" y="-1755.9" font-family="Arial" font-size="14.00" fill="#000000">user_id </text>
<text text-anchor="start" x="742.7882" y="-1755.9" font-family="Arial" font-size="14.00" fill="#666666">[integer]</text>
</g>
<!-- public.starsearch_user_threads&#45;&gt;public.starsearch_threads -->
<g id="edge1" class="edge">
<title>public.starsearch_user_threads:starsearch_thread_id&#45;&gt;public.starsearch_threads:id</title>
<path fill="none" stroke="#000000" d="M676.2288,-1786.3936C590.1415,-1728.5577 668.126,-882.5 570,-882.5"/>
<polygon fill="#000000" stroke="#000000" points="676.47,-1786.4702 684.6366,-1793.7885 681.235,-1787.9851 686,-1789.5 686,-1789.5 686,-1789.5 681.235,-1787.9851 687.3634,-1785.2115 676.47,-1786.4702 676.47,-1786.4702"/>
<text text-anchor="start" x="692.8135" y="-1799.5" font-family="Arial" font-size="10.00" fill="#000000">FOREIGN KEY (starsearch_thread_id) REFERENCES starsearch_threads(id) ON UPDATE CASCADE ON DELETE CASCADE</text>
</g>
<!-- public.users -->
<g id="node3" class="node">
<title>public.users</title>
<polygon fill="#efefef" stroke="transparent" points="691,-1482.5 691,-1517.5 1042,-1517.5 1042,-1482.5 691,-1482.5"/>
<polygon fill="none" stroke="#000000" points="691,-1482.5 691,-1517.5 1042,-1517.5 1042,-1482.5 691,-1482.5"/>
<text text-anchor="start" x="769.8662" y="-1495.3" font-family="Arial Bold" font-size="18.00" fill="#000000">public.users</text>
<text text-anchor="start" x="865.88" y="-1495.3" font-family="Arial" font-size="14.00" fill="#000000"> </text>
<text text-anchor="start" x="869.7706" y="-1495.3" font-family="Arial" font-size="14.00" fill="#666666">[BASE TABLE]</text>
<polygon fill="none" stroke="#000000" points="691,-1452.5 691,-1482.5 1042,-1482.5 1042,-1452.5 691,-1452.5"/>
<text text-anchor="start" x="698" y="-1463.9" font-family="Arial" font-size="14.00" fill="#000000">id </text>
<text text-anchor="start" x="712.7798" y="-1463.9" font-family="Arial" font-size="14.00" fill="#666666">[bigint]</text>
<polygon fill="none" stroke="#000000" points="691,-1422.5 691,-1452.5 1042,-1452.5 1042,-1422.5 691,-1422.5"/>
<text text-anchor="start" x="698" y="-1433.9" font-family="Arial" font-size="14.00" fill="#000000">open_issues </text>
<text text-anchor="start" x="780.4754" y="-1433.9" font-family="Arial" font-size="14.00" fill="#666666">[bigint]</text>
<polygon fill="none" stroke="#000000" points="691,-1392.5 691,-1422.5 1042,-1422.5 1042,-1392.5 691,-1392.5"/>
<text text-anchor="start" x="698" y="-1403.9" font-family="Arial" font-size="14.00" fill="#000000">public_repos </text>
<text text-anchor="start" x="781.2426" y="-1403.9" font-family="Arial" font-size="14.00" fill="#666666">[bigint]</text>
<polygon fill="none" stroke="#000000" points="691,-1362.5 691,-1392.5 1042,-1392.5 1042,-1362.5 691,-1362.5"/>
<text text-anchor="start" x="698" y="-1373.9" font-family="Arial" font-size="14.00" fill="#000000">public_gists </text>
<text text-anchor="start" x="775.014" y="-1373.9" font-family="Arial" font-size="14.00" fill="#666666">[bigint]</text>
<polygon fill="none" stroke="#000000" points="691,-1332.5 691,-1362.5 1042,-1362.5 1042,-1332.5 691,-1332.5"/>
<text text-anchor="start" x="698" y="-1343.9" font-family="Arial" font-size="14.00" fill="#000000">followers </text>
<text text-anchor="start" x="757.1094" y="-1343.9" font-family="Arial" font-size="14.00" fill="#666666">[bigint]</text>
<polygon fill="none" stroke="#000000" points="691,-1302.5 691,-1332.5 1042,-1332.5 1042,-1302.5 691,-1302.5"/>
<text text-anchor="start" x="698" y="-1313.9" font-family="Arial" font-size="14.00" fill="#000000">following </text>
<text text-anchor="start" x="756.338" y="-1313.9" font-family="Arial" font-size="14.00" fill="#666666">[bigint]</text>
<polygon fill="none" stroke="#000000" points="691,-1272.5 691,-1302.5 1042,-1302.5 1042,-1272.5 691,-1272.5"/>
<text text-anchor="start" x="698" y="-1283.9" font-family="Arial" font-size="14.00" fill="#000000">role </text>
<text text-anchor="start" x="725.223" y="-1283.9" font-family="Arial" font-size="14.00" fill="#666666">[bigint]</text>
<polygon fill="none" stroke="#000000" points="691,-1242.5 691,-1272.5 1042,-1272.5 1042,-1242.5 691,-1242.5"/>
<text text-anchor="start" x="698" y="-1253.9" font-family="Arial" font-size="14.00" fill="#000000">display_local_time </text>
<text text-anchor="start" x="816.2356" y="-1253.9" font-family="Arial" font-size="14.00" fill="#666666">[boolean]</text>
<polygon fill="none" stroke="#000000" points="691,-1212.5 691,-1242.5 1042,-1242.5 1042,-1212.5 691,-1212.5"/>
<text text-anchor="start" x="698" y="-1223.9" font-family="Arial" font-size="14.00" fill="#000000">has_stars_data </text>
<text text-anchor="start" x="797.5932" y="-1223.9" font-family="Arial" font-size="14.00" fill="#666666">[boolean]</text>
<polygon fill="none" stroke="#000000" points="691,-1182.5 691,-1212.5 1042,-1212.5 1042,-1182.5 691,-1182.5"/>
<text text-anchor="start" x="698" y="-1193.9" font-family="Arial" font-size="14.00" fill="#000000">is_private </text>
<text text-anchor="start" x="761.7854" y="-1193.9" font-family="Arial" font-size="14.00" fill="#666666">[boolean]</text>
<polygon fill="none" stroke="#000000" points="691,-1152.5 691,-1182.5 1042,-1182.5 1042,-1152.5 691,-1152.5"/>
<text text-anchor="start" x="698" y="-1163.9" font-family="Arial" font-size="14.00" fill="#000000">is_open_sauced_member </text>
<text text-anchor="start" x="862.9354" y="-1163.9" font-family="Arial" font-size="14.00" fill="#666666">[boolean]</text>
<polygon fill="none" stroke="#000000" points="691,-1122.5 691,-1152.5 1042,-1152.5 1042,-1122.5 691,-1122.5"/>
<text text-anchor="start" x="698" y="-1133.9" font-family="Arial" font-size="14.00" fill="#000000">is_onboarded </text>
<text text-anchor="start" x="786.7012" y="-1133.9" font-family="Arial" font-size="14.00" fill="#666666">[boolean]</text>
<polygon fill="none" stroke="#000000" points="691,-1092.5 691,-1122.5 1042,-1122.5 1042,-1092.5 691,-1092.5"/>
<text text-anchor="start" x="698" y="-1103.9" font-family="Arial" font-size="14.00" fill="#000000">is_waitlisted </text>
<text text-anchor="start" x="777.3352" y="-1103.9" font-family="Arial" font-size="14.00" fill="#666666">[boolean]</text>
<polygon fill="none" stroke="#000000" points="691,-1062.5 691,-1092.5 1042,-1092.5 1042,-1062.5 691,-1062.5"/>
<text text-anchor="start" x="698" y="-1073.9" font-family="Arial" font-size="14.00" fill="#000000">hireable </text>
<text text-anchor="start" x="751.6774" y="-1073.9" font-family="Arial" font-size="14.00" fill="#666666">[boolean]</text>
<polygon fill="none" stroke="#000000" points="691,-1032.5 691,-1062.5 1042,-1062.5 1042,-1032.5 691,-1032.5"/>
<text text-anchor="start" x="698" y="-1043.9" font-family="Arial" font-size="14.00" fill="#000000">display_email </text>
<text text-anchor="start" x="786.6732" y="-1043.9" font-family="Arial" font-size="14.00" fill="#666666">[boolean]</text>
<polygon fill="none" stroke="#000000" points="691,-1002.5 691,-1032.5 1042,-1032.5 1042,-1002.5 691,-1002.5"/>
<text text-anchor="start" x="698" y="-1013.9" font-family="Arial" font-size="14.00" fill="#000000">receive_collaboration </text>
<text text-anchor="start" x="834.1374" y="-1013.9" font-family="Arial" font-size="14.00" fill="#666666">[boolean]</text>
<polygon fill="none" stroke="#000000" points="691,-972.5 691,-1002.5 1042,-1002.5 1042,-972.5 691,-972.5"/>
<text text-anchor="start" x="698" y="-983.9" font-family="Arial" font-size="14.00" fill="#000000">created_at </text>
<text text-anchor="start" x="768.028" y="-983.9" font-family="Arial" font-size="14.00" fill="#666666">[timestamp without time zone]</text>
<polygon fill="none" stroke="#000000" points="691,-942.5 691,-972.5 1042,-972.5 1042,-942.5 691,-942.5"/>
<text text-anchor="start" x="698" y="-953.9" font-family="Arial" font-size="14.00" fill="#000000">updated_at </text>
<text text-anchor="start" x="771.9326" y="-953.9" font-family="Arial" font-size="14.00" fill="#666666">[timestamp without time zone]</text>
<polygon fill="none" stroke="#000000" points="691,-912.5 691,-942.5 1042,-942.5 1042,-912.5 691,-912.5"/>
<text text-anchor="start" x="698" y="-923.9" font-family="Arial" font-size="14.00" fill="#000000">deleted_at </text>
<text text-anchor="start" x="767.2566" y="-923.9" font-family="Arial" font-size="14.00" fill="#666666">[timestamp without time zone]</text>
<polygon fill="none" stroke="#000000" points="691,-882.5 691,-912.5 1042,-912.5 1042,-882.5 691,-882.5"/>
<text text-anchor="start" x="698" y="-893.9" font-family="Arial" font-size="14.00" fill="#000000">type </text>
<text text-anchor="start" x="728.3464" y="-893.9" font-family="Arial" font-size="14.00" fill="#666666">[varchar(20)]</text>
<polygon fill="none" stroke="#000000" points="691,-852.5 691,-882.5 1042,-882.5 1042,-852.5 691,-852.5"/>
<text text-anchor="start" x="698" y="-863.9" font-family="Arial" font-size="14.00" fill="#000000">timezone </text>
<text text-anchor="start" x="758.6788" y="-863.9" font-family="Arial" font-size="14.00" fill="#666666">[varchar(50)]</text>
<polygon fill="none" stroke="#000000" points="691,-822.5 691,-852.5 1042,-852.5 1042,-822.5 691,-822.5"/>
<text text-anchor="start" x="698" y="-833.9" font-family="Arial" font-size="14.00" fill="#000000">login </text>
<text text-anchor="start" x="731.4516" y="-833.9" font-family="Arial" font-size="14.00" fill="#666666">[varchar(255)]</text>
<polygon fill="none" stroke="#000000" points="691,-792.5 691,-822.5 1042,-822.5 1042,-792.5 691,-792.5"/>
<text text-anchor="start" x="698" y="-803.9" font-family="Arial" font-size="14.00" fill="#000000">email </text>
<text text-anchor="start" x="735.3296" y="-803.9" font-family="Arial" font-size="14.00" fill="#666666">[varchar(255)]</text>
<polygon fill="none" stroke="#000000" points="691,-762.5 691,-792.5 1042,-792.5 1042,-762.5 691,-762.5"/>
<text text-anchor="start" x="698" y="-773.9" font-family="Arial" font-size="14.00" fill="#000000">bio </text>
<text text-anchor="start" x="720.5624" y="-773.9" font-family="Arial" font-size="14.00" fill="#666666">[varchar(255)]</text>
<polygon fill="none" stroke="#000000" points="691,-732.5 691,-762.5 1042,-762.5 1042,-732.5 691,-732.5"/>
<text text-anchor="start" x="698" y="-743.9" font-family="Arial" font-size="14.00" fill="#000000">name </text>
<text text-anchor="start" x="736.899" y="-743.9" font-family="Arial" font-size="14.00" fill="#666666">[varchar(255)]</text>
<polygon fill="none" stroke="#000000" points="691,-702.5 691,-732.5 1042,-732.5 1042,-702.5 691,-702.5"/>
<text text-anchor="start" x="698" y="-713.9" font-family="Arial" font-size="14.00" fill="#000000">twitter_username </text>
<text text-anchor="start" x="809.2356" y="-713.9" font-family="Arial" font-size="14.00" fill="#666666">[varchar(15)]</text>
<polygon fill="none" stroke="#000000" points="691,-672.5 691,-702.5 1042,-702.5 1042,-672.5 691,-672.5"/>
<text text-anchor="start" x="698" y="-683.9" font-family="Arial" font-size="14.00" fill="#000000">company </text>
<text text-anchor="start" x="758.6816" y="-683.9" font-family="Arial" font-size="14.00" fill="#666666">[varchar(255)]</text>
<polygon fill="none" stroke="#000000" points="691,-642.5 691,-672.5 1042,-672.5 1042,-642.5 691,-642.5"/>
<text text-anchor="start" x="698" y="-653.9" font-family="Arial" font-size="14.00" fill="#000000">location </text>
<text text-anchor="start" x="750.1248" y="-653.9" font-family="Arial" font-size="14.00" fill="#666666">[varchar(255)]</text>
<polygon fill="none" stroke="#000000" points="691,-612.5 691,-642.5 1042,-642.5 1042,-612.5 691,-612.5"/>
<text text-anchor="start" x="698" y="-623.9" font-family="Arial" font-size="14.00" fill="#000000">node_id </text>
<text text-anchor="start" x="751.6928" y="-623.9" font-family="Arial" font-size="14.00" fill="#666666">[varchar(50)]</text>
<polygon fill="none" stroke="#000000" points="691,-582.5 691,-612.5 1042,-612.5 1042,-582.5 691,-582.5"/>
<text text-anchor="start" x="698" y="-593.9" font-family="Arial" font-size="14.00" fill="#000000">avatar_url </text>
<text text-anchor="start" x="764.122" y="-593.9" font-family="Arial" font-size="14.00" fill="#666666">[varchar(255)]</text>
<polygon fill="none" stroke="#000000" points="691,-552.5 691,-582.5 1042,-582.5 1042,-552.5 691,-552.5"/>
<text text-anchor="start" x="698" y="-563.9" font-family="Arial" font-size="14.00" fill="#000000">gravatar_id </text>
<text text-anchor="start" x="771.9046" y="-563.9" font-family="Arial" font-size="14.00" fill="#666666">[varchar(255)]</text>
<polygon fill="none" stroke="#000000" points="691,-522.5 691,-552.5 1042,-552.5 1042,-522.5 691,-522.5"/>
<text text-anchor="start" x="698" y="-533.9" font-family="Arial" font-size="14.00" fill="#000000">url </text>
<text text-anchor="start" x="717.4404" y="-533.9" font-family="Arial" font-size="14.00" fill="#666666">[varchar(255)]</text>
<polygon fill="none" stroke="#000000" points="691,-492.5 691,-522.5 1042,-522.5 1042,-492.5 691,-492.5"/>
<text text-anchor="start" x="698" y="-503.9" font-family="Arial" font-size="14.00" fill="#000000">blog </text>
<text text-anchor="start" x="728.345" y="-503.9" font-family="Arial" font-size="14.00" fill="#666666">[varchar(255)]</text>
<polygon fill="none" stroke="#000000" points="691,-462.5 691,-492.5 1042,-492.5 1042,-462.5 691,-462.5"/>
<text text-anchor="start" x="698" y="-473.9" font-family="Arial" font-size="14.00" fill="#000000">interests </text>
<text text-anchor="start" x="754.7868" y="-473.9" font-family="Arial" font-size="14.00" fill="#666666">[varchar(200)]</text>
<polygon fill="none" stroke="#000000" points="691,-432.5 691,-462.5 1042,-462.5 1042,-432.5 691,-432.5"/>
<text text-anchor="start" x="698" y="-443.9" font-family="Arial" font-size="14.00" fill="#000000">linkedin_url </text>
<text text-anchor="start" x="772.6732" y="-443.9" font-family="Arial" font-size="14.00" fill="#666666">[varchar(255)]</text>
<polygon fill="none" stroke="#000000" points="691,-402.5 691,-432.5 1042,-432.5 1042,-402.5 691,-402.5"/>
<text text-anchor="start" x="698" y="-413.9" font-family="Arial" font-size="14.00" fill="#000000">github_sponsors_url </text>
<text text-anchor="start" x="827.9242" y="-413.9" font-family="Arial" font-size="14.00" fill="#666666">[varchar(255)]</text>
<polygon fill="none" stroke="#000000" points="691,-372.5 691,-402.5 1042,-402.5 1042,-372.5 691,-372.5"/>
<text text-anchor="start" x="698" y="-383.9" font-family="Arial" font-size="14.00" fill="#000000">last_fetched_users_at </text>
<text text-anchor="start" x="838.8288" y="-383.9" font-family="Arial" font-size="14.00" fill="#666666">[timestamp without time zone]</text>
<polygon fill="none" stroke="#000000" points="691,-342.5 691,-372.5 1042,-372.5 1042,-342.5 691,-342.5"/>
<text text-anchor="start" x="698" y="-353.9" font-family="Arial" font-size="14.00" fill="#000000">languages </text>
<text text-anchor="start" x="766.4754" y="-353.9" font-family="Arial" font-size="14.00" fill="#666666">[jsonb]</text>
<polygon fill="none" stroke="#000000" points="691,-312.5 691,-342.5 1042,-342.5 1042,-312.5 691,-312.5"/>
<text text-anchor="start" x="698" y="-323.9" font-family="Arial" font-size="14.00" fill="#000000">first_opened_pr_at </text>
<text text-anchor="start" x="818.5988" y="-323.9" font-family="Arial" font-size="14.00" fill="#666666">[timestamp without time zone]</text>
<polygon fill="none" stroke="#000000" points="691,-282.5 691,-312.5 1042,-312.5 1042,-282.5 691,-282.5"/>
<text text-anchor="start" x="697.6929" y="-293.9" font-family="Arial" font-size="14.00" fill="#000000">first_pushed_commit_at </text>
<text text-anchor="start" x="850.1669" y="-293.9" font-family="Arial" font-size="14.00" fill="#666666">[timestamp without time zone]</text>
<polygon fill="none" stroke="#000000" points="691,-252.5 691,-282.5 1042,-282.5 1042,-252.5 691,-252.5"/>
<text text-anchor="start" x="698" y="-263.9" font-family="Arial" font-size="14.00" fill="#000000">connected_at </text>
<text text-anchor="start" x="785.9326" y="-263.9" font-family="Arial" font-size="14.00" fill="#666666">[timestamp without time zone]</text>
<polygon fill="none" stroke="#000000" points="691,-222.5 691,-252.5 1042,-252.5 1042,-222.5 691,-222.5"/>
<text text-anchor="start" x="698" y="-233.9" font-family="Arial" font-size="14.00" fill="#000000">discord_url </text>
<text text-anchor="start" x="770.338" y="-233.9" font-family="Arial" font-size="14.00" fill="#666666">[varchar(255)]</text>
<polygon fill="none" stroke="#000000" points="691,-192.5 691,-222.5 1042,-222.5 1042,-192.5 691,-192.5"/>
<text text-anchor="start" x="698" y="-203.9" font-family="Arial" font-size="14.00" fill="#000000">coupon_code </text>
<text text-anchor="start" x="785.934" y="-203.9" font-family="Arial" font-size="14.00" fill="#666666">[varchar]</text>
<polygon fill="none" stroke="#000000" points="691,-162.5 691,-192.5 1042,-192.5 1042,-162.5 691,-162.5"/>
<text text-anchor="start" x="698" y="-173.9" font-family="Arial" font-size="14.00" fill="#000000">receive_product_updates </text>
<text text-anchor="start" x="859.056" y="-173.9" font-family="Arial" font-size="14.00" fill="#666666">[boolean]</text>
<polygon fill="none" stroke="#000000" points="691,-132.5 691,-162.5 1042,-162.5 1042,-132.5 691,-132.5"/>
<text text-anchor="start" x="698" y="-143.9" font-family="Arial" font-size="14.00" fill="#000000">campaign_start_date </text>
<text text-anchor="start" x="832.5988" y="-143.9" font-family="Arial" font-size="14.00" fill="#666666">[timestamp without time zone]</text>
<polygon fill="none" stroke="#000000" points="691,-102.5 691,-132.5 1042,-132.5 1042,-102.5 691,-102.5"/>
<text text-anchor="start" x="698" y="-113.9" font-family="Arial" font-size="14.00" fill="#000000">personal_workspace_id </text>
<text text-anchor="start" x="848.9228" y="-113.9" font-family="Arial" font-size="14.00" fill="#666666">[uuid]</text>
<polygon fill="none" stroke="#000000" points="691,-72.5 691,-102.5 1042,-102.5 1042,-72.5 691,-72.5"/>
<text text-anchor="start" x="698" y="-83.9" font-family="Arial" font-size="14.00" fill="#000000">accepted_usage_terms </text>
<text text-anchor="start" x="847.3842" y="-83.9" font-family="Arial" font-size="14.00" fill="#666666">[boolean]</text>
<polygon fill="none" stroke="#000000" points="691,-42.5 691,-72.5 1042,-72.5 1042,-42.5 691,-42.5"/>
<text text-anchor="start" x="698" y="-53.9" font-family="Arial" font-size="14.00" fill="#000000">fetch_error </text>
<text text-anchor="start" x="769.5666" y="-53.9" font-family="Arial" font-size="14.00" fill="#666666">[boolean]</text>
</g>
<!-- public.starsearch_user_threads&#45;&gt;public.users -->
<g id="edge2" class="edge">
<title>public.starsearch_user_threads:user_id&#45;&gt;public.users:id</title>
<path fill="none" stroke="#000000" d="M867.3831,-1734.3552C875.2303,-1633.7812 1001.4188,-1662.3532 1042,-1561 1057.4465,-1522.4219 1083.5556,-1467.5 1042,-1467.5"/>
<polygon fill="#000000" stroke="#000000" points="867.3775,-1734.5071 862.5032,-1744.3301 867.1887,-1739.5036 867,-1744.5 867,-1744.5 867,-1744.5 867.1887,-1739.5036 871.4968,-1744.6699 867.3775,-1734.5071 867.3775,-1734.5071"/>
<text text-anchor="start" x="873.9425" y="-1754.5" font-family="Arial" font-size="10.00" fill="#000000">FOREIGN KEY (user_id) REFERENCES users(id) ON UPDATE CASCADE ON DELETE CASCADE</text>
</g>
<!-- public.starsearch_thread_history -->
<g id="node4" class="node">
<title>public.starsearch_thread_history</title>
<polygon fill="#efefef" stroke="transparent" points="211,-2029.5 211,-2064.5 582,-2064.5 582,-2029.5 211,-2029.5"/>
<polygon fill="none" stroke="#000000" points="211,-2029.5 211,-2064.5 582,-2064.5 582,-2029.5 211,-2029.5"/>
<text text-anchor="start" x="217.8465" y="-2042.3" font-family="Arial Bold" font-size="18.00" fill="#000000">public.starsearch_thread_history</text>
<text text-anchor="start" x="477.8997" y="-2042.3" font-family="Arial" font-size="14.00" fill="#000000"> </text>
<text text-anchor="start" x="481.7903" y="-2042.3" font-family="Arial" font-size="14.00" fill="#666666">[BASE TABLE]</text>
<polygon fill="none" stroke="#000000" points="211,-1999.5 211,-2029.5 582,-2029.5 582,-1999.5 211,-1999.5"/>
<text text-anchor="start" x="218" y="-2010.9" font-family="Arial" font-size="14.00" fill="#000000">id </text>
<text text-anchor="start" x="232.7798" y="-2010.9" font-family="Arial" font-size="14.00" fill="#666666">[uuid]</text>
<polygon fill="none" stroke="#000000" points="211,-1969.5 211,-1999.5 582,-1999.5 582,-1969.5 211,-1969.5"/>
<text text-anchor="start" x="218" y="-1980.9" font-family="Arial" font-size="14.00" fill="#000000">created_at </text>
<text text-anchor="start" x="288.028" y="-1980.9" font-family="Arial" font-size="14.00" fill="#666666">[timestamp without time zone]</text>
<polygon fill="none" stroke="#000000" points="211,-1939.5 211,-1969.5 582,-1969.5 582,-1939.5 211,-1939.5"/>
<text text-anchor="start" x="218" y="-1950.9" font-family="Arial" font-size="14.00" fill="#000000">updated_at </text>
<text text-anchor="start" x="291.9326" y="-1950.9" font-family="Arial" font-size="14.00" fill="#666666">[timestamp without time zone]</text>
<polygon fill="none" stroke="#000000" points="211,-1909.5 211,-1939.5 582,-1939.5 582,-1909.5 211,-1909.5"/>
<text text-anchor="start" x="218" y="-1920.9" font-family="Arial" font-size="14.00" fill="#000000">observed_at </text>
<text text-anchor="start" x="298.92" y="-1920.9" font-family="Arial" font-size="14.00" fill="#666666">[timestamp without time zone]</text>
<polygon fill="none" stroke="#000000" points="211,-1879.5 211,-1909.5 582,-1909.5 582,-1879.5 211,-1879.5"/>
<text text-anchor="start" x="218" y="-1890.9" font-family="Arial" font-size="14.00" fill="#000000">deleted_at </text>
<text text-anchor="start" x="287.2566" y="-1890.9" font-family="Arial" font-size="14.00" fill="#666666">[timestamp without time zone]</text>
<polygon fill="none" stroke="#000000" points="211,-1849.5 211,-1879.5 582,-1879.5 582,-1849.5 211,-1849.5"/>
<text text-anchor="start" x="218" y="-1860.9" font-family="Arial" font-size="14.00" fill="#000000">starsearch_thread_id </text>
<text text-anchor="start" x="353.3688" y="-1860.9" font-family="Arial" font-size="14.00" fill="#666666">[uuid]</text>
<polygon fill="none" stroke="#000000" points="211,-1819.5 211,-1849.5 582,-1849.5 582,-1819.5 211,-1819.5"/>
<text text-anchor="start" x="218" y="-1830.9" font-family="Arial" font-size="14.00" fill="#000000">type </text>
<text text-anchor="start" x="248.3464" y="-1830.9" font-family="Arial" font-size="14.00" fill="#666666">[text]</text>
<polygon fill="none" stroke="#000000" points="211,-1789.5 211,-1819.5 582,-1819.5 582,-1789.5 211,-1789.5"/>
<text text-anchor="start" x="218" y="-1800.9" font-family="Arial" font-size="14.00" fill="#000000">message </text>
<text text-anchor="start" x="278.6816" y="-1800.9" font-family="Arial" font-size="14.00" fill="#666666">[text]</text>
<polygon fill="none" stroke="#000000" points="211,-1759.5 211,-1789.5 582,-1789.5 582,-1759.5 211,-1759.5"/>
<text text-anchor="start" x="218" y="-1770.9" font-family="Arial" font-size="14.00" fill="#000000">is_error </text>
<text text-anchor="start" x="269.3268" y="-1770.9" font-family="Arial" font-size="14.00" fill="#666666">[boolean]</text>
<polygon fill="none" stroke="#000000" points="211,-1729.5 211,-1759.5 582,-1759.5 582,-1729.5 211,-1729.5"/>
<text text-anchor="start" x="218" y="-1740.9" font-family="Arial" font-size="14.00" fill="#000000">error </text>
<text text-anchor="start" x="251.4376" y="-1740.9" font-family="Arial" font-size="14.00" fill="#666666">[text]</text>
<polygon fill="none" stroke="#000000" points="211,-1699.5 211,-1729.5 582,-1729.5 582,-1699.5 211,-1699.5"/>
<text text-anchor="start" x="218" y="-1710.9" font-family="Arial" font-size="14.00" fill="#000000">actor </text>
<text text-anchor="start" x="253.007" y="-1710.9" font-family="Arial" font-size="14.00" fill="#666666">[text]</text>
<polygon fill="none" stroke="#000000" points="211,-1669.5 211,-1699.5 582,-1699.5 582,-1669.5 211,-1669.5"/>
<text text-anchor="start" x="218" y="-1680.9" font-family="Arial" font-size="14.00" fill="#000000">mood </text>
<text text-anchor="start" x="256.899" y="-1680.9" font-family="Arial" font-size="14.00" fill="#666666">[integer]</text>
<polygon fill="none" stroke="#000000" points="211,-1639.5 211,-1669.5 582,-1669.5 582,-1639.5 211,-1639.5"/>
<text text-anchor="start" x="218" y="-1650.9" font-family="Arial" font-size="14.00" fill="#000000">embedding </text>
<text text-anchor="start" x="291.136" y="-1650.9" font-family="Arial" font-size="14.00" fill="#666666">[vector(1024)]</text>
</g>
<!-- public.starsearch_thread_history&#45;&gt;public.starsearch_threads -->
<g id="edge3" class="edge">
<title>public.starsearch_thread_history:starsearch_thread_id&#45;&gt;public.starsearch_threads:id</title>
<path fill="none" stroke="#000000" d="M591.9543,-1862.1295C635.9331,-1838.8662 595.4959,-1651.0703 582,-1597 497.337,-1257.8029 -96.6033,-882.5 253,-882.5"/>
<polygon fill="#000000" stroke="#000000" points="591.728,-1862.1833 580.9575,-1860.1224 586.864,-1863.3417 582,-1864.5 582,-1864.5 582,-1864.5 586.864,-1863.3417 583.0425,-1868.8776 591.728,-1862.1833 591.728,-1862.1833"/>
<text text-anchor="start" x="6.8135" y="-1874.5" font-family="Arial" font-size="10.00" fill="#000000">FOREIGN KEY (starsearch_thread_id) REFERENCES starsearch_threads(id) ON UPDATE CASCADE ON DELETE CASCADE</text>
</g>
</g>
</svg>
