<?xml version="1.0" encoding="UTF-8" standalone="no"?>
<!DOCTYPE svg PUBLIC "-//W3C//DTD SVG 1.1//EN"
 "http://www.w3.org/Graphics/SVG/1.1/DTD/svg11.dtd">
<!-- Generated by graphviz version 2.40.1 (20161225.0304)
 -->
<!-- Title: public.starsearch_threads Pages: 1 -->
<svg width="1952pt" height="2176pt"
 viewBox="0.00 0.00 1952.00 2176.00" xmlns="http://www.w3.org/2000/svg" xmlns:xlink="http://www.w3.org/1999/xlink">
<g id="graph0" class="graph" transform="scale(1 1) rotate(0) translate(4 2172)">
<title>public.starsearch_threads</title>
<polygon fill="#ffffff" stroke="transparent" points="-4,4 -4,-2172 1948,-2172 1948,4 -4,4"/>
<!-- public.starsearch_threads -->
<g id="node1" class="node">
<title>public.starsearch_threads</title>
<polygon fill="#efefef" stroke="transparent" points="773,-927.5 773,-962.5 1090,-962.5 1090,-927.5 773,-927.5"/>
<polygon fill="none" stroke="#000000" points="773,-927.5 773,-962.5 1090,-962.5 1090,-927.5 773,-927.5"/>
<text text-anchor="start" x="779.8501" y="-940.3" font-family="Arial Bold" font-size="18.00" fill="#000000">public.starsearch_threads</text>
<text text-anchor="start" x="985.8961" y="-940.3" font-family="Arial" font-size="14.00" fill="#000000"> </text>
<text text-anchor="start" x="989.7867" y="-940.3" font-family="Arial" font-size="14.00" fill="#666666">[BASE TABLE]</text>
<polygon fill="none" stroke="#000000" points="773,-897.5 773,-927.5 1090,-927.5 1090,-897.5 773,-897.5"/>
<text text-anchor="start" x="780" y="-908.9" font-family="Arial" font-size="14.00" fill="#000000">id </text>
<text text-anchor="start" x="794.7798" y="-908.9" font-family="Arial" font-size="14.00" fill="#666666">[uuid]</text>
<polygon fill="none" stroke="#000000" points="773,-867.5 773,-897.5 1090,-897.5 1090,-867.5 773,-867.5"/>
<text text-anchor="start" x="780" y="-878.9" font-family="Arial" font-size="14.00" fill="#000000">created_at </text>
<text text-anchor="start" x="850.028" y="-878.9" font-family="Arial" font-size="14.00" fill="#666666">[timestamp without time zone]</text>
<polygon fill="none" stroke="#000000" points="773,-837.5 773,-867.5 1090,-867.5 1090,-837.5 773,-837.5"/>
<text text-anchor="start" x="780" y="-848.9" font-family="Arial" font-size="14.00" fill="#000000">updated_at </text>
<text text-anchor="start" x="853.9326" y="-848.9" font-family="Arial" font-size="14.00" fill="#666666">[timestamp without time zone]</text>
<polygon fill="none" stroke="#000000" points="773,-807.5 773,-837.5 1090,-837.5 1090,-807.5 773,-807.5"/>
<text text-anchor="start" x="780" y="-818.9" font-family="Arial" font-size="14.00" fill="#000000">archived_at </text>
<text text-anchor="start" x="856.244" y="-818.9" font-family="Arial" font-size="14.00" fill="#666666">[timestamp without time zone]</text>
<polygon fill="none" stroke="#000000" points="773,-777.5 773,-807.5 1090,-807.5 1090,-777.5 773,-777.5"/>
<text text-anchor="start" x="780" y="-788.9" font-family="Arial" font-size="14.00" fill="#000000">deleted_at </text>
<text text-anchor="start" x="849.2566" y="-788.9" font-family="Arial" font-size="14.00" fill="#666666">[timestamp without time zone]</text>
<polygon fill="none" stroke="#000000" points="773,-747.5 773,-777.5 1090,-777.5 1090,-747.5 773,-747.5"/>
<text text-anchor="start" x="780" y="-758.9" font-family="Arial" font-size="14.00" fill="#000000">is_publicly_viewable </text>
<text text-anchor="start" x="910.6802" y="-758.9" font-family="Arial" font-size="14.00" fill="#666666">[boolean]</text>
<polygon fill="none" stroke="#000000" points="773,-717.5 773,-747.5 1090,-747.5 1090,-717.5 773,-717.5"/>
<text text-anchor="start" x="780" y="-728.9" font-family="Arial" font-size="14.00" fill="#000000">public_link </text>
<text text-anchor="start" x="849.23" y="-728.9" font-family="Arial" font-size="14.00" fill="#666666">[text]</text>
<polygon fill="none" stroke="#000000" points="773,-687.5 773,-717.5 1090,-717.5 1090,-687.5 773,-687.5"/>
<text text-anchor="start" x="780" y="-698.9" font-family="Arial" font-size="14.00" fill="#000000">title </text>
<text text-anchor="start" x="805.6676" y="-698.9" font-family="Arial" font-size="14.00" fill="#666666">[varchar(255)]</text>
<polygon fill="none" stroke="#000000" points="773,-657.5 773,-687.5 1090,-687.5 1090,-657.5 773,-657.5"/>
<text text-anchor="start" x="780" y="-668.9" font-family="Arial" font-size="14.00" fill="#000000">thread_summary </text>
<text text-anchor="start" x="888.9018" y="-668.9" font-family="Arial" font-size="14.00" fill="#666666">[text]</text>
<polygon fill="none" stroke="#000000" stroke-width="3" points="771,-656.5 771,-964.5 1091,-964.5 1091,-656.5 771,-656.5"/>
</g>
<!-- public.starsearch_user_threads -->
<g id="node2" class="node">
<title>public.starsearch_user_threads</title>
<polygon fill="#efefef" stroke="transparent" points="279,-1984.5 279,-2019.5 641,-2019.5 641,-1984.5 279,-1984.5"/>
<polygon fill="none" stroke="#000000" points="279,-1984.5 279,-2019.5 641,-2019.5 641,-1984.5 279,-1984.5"/>
<text text-anchor="start" x="285.8447" y="-1997.3" font-family="Arial Bold" font-size="18.00" fill="#000000">public.starsearch_user_threads</text>
<text text-anchor="start" x="536.9015" y="-1997.3" font-family="Arial" font-size="14.00" fill="#000000"> </text>
<text text-anchor="start" x="540.7921" y="-1997.3" font-family="Arial" font-size="14.00" fill="#666666">[BASE TABLE]</text>
<polygon fill="none" stroke="#000000" points="279,-1954.5 279,-1984.5 641,-1984.5 641,-1954.5 279,-1954.5"/>
<text text-anchor="start" x="286" y="-1965.9" font-family="Arial" font-size="14.00" fill="#000000">id </text>
<text text-anchor="start" x="300.7798" y="-1965.9" font-family="Arial" font-size="14.00" fill="#666666">[uuid]</text>
<polygon fill="none" stroke="#000000" points="279,-1924.5 279,-1954.5 641,-1954.5 641,-1924.5 279,-1924.5"/>
<text text-anchor="start" x="286" y="-1935.9" font-family="Arial" font-size="14.00" fill="#000000">created_at </text>
<text text-anchor="start" x="356.028" y="-1935.9" font-family="Arial" font-size="14.00" fill="#666666">[timestamp without time zone]</text>
<polygon fill="none" stroke="#000000" points="279,-1894.5 279,-1924.5 641,-1924.5 641,-1894.5 279,-1894.5"/>
<text text-anchor="start" x="286" y="-1905.9" font-family="Arial" font-size="14.00" fill="#000000">updated_at </text>
<text text-anchor="start" x="359.9326" y="-1905.9" font-family="Arial" font-size="14.00" fill="#666666">[timestamp without time zone]</text>
<polygon fill="none" stroke="#000000" points="279,-1864.5 279,-1894.5 641,-1894.5 641,-1864.5 279,-1864.5"/>
<text text-anchor="start" x="286" y="-1875.9" font-family="Arial" font-size="14.00" fill="#000000">deleted_at </text>
<text text-anchor="start" x="355.2566" y="-1875.9" font-family="Arial" font-size="14.00" fill="#666666">[timestamp without time zone]</text>
<polygon fill="none" stroke="#000000" points="279,-1834.5 279,-1864.5 641,-1864.5 641,-1834.5 279,-1834.5"/>
<text text-anchor="start" x="286" y="-1845.9" font-family="Arial" font-size="14.00" fill="#000000">starsearch_thread_id </text>
<text text-anchor="start" x="421.3688" y="-1845.9" font-family="Arial" font-size="14.00" fill="#666666">[uuid]</text>
<polygon fill="none" stroke="#000000" points="279,-1804.5 279,-1834.5 641,-1834.5 641,-1804.5 279,-1804.5"/>
<text text-anchor="start" x="286" y="-1815.9" font-family="Arial" font-size="14.00" fill="#000000">user_id </text>
<text text-anchor="start" x="335.7882" y="-1815.9" font-family="Arial" font-size="14.00" fill="#666666">[integer]</text>
</g>
<!-- public.starsearch_user_threads&#45;&gt;public.starsearch_threads -->
<g id="edge1" class="edge">
<title>public.starsearch_user_threads:starsearch_thread_id&#45;&gt;public.starsearch_threads:id</title>
<path fill="none" stroke="#000000" d="M650.9591,-1846.9745C690.7701,-1825.1783 678.4146,-1668.5125 686,-1621 698.5042,-1542.6784 693.6865,-912.5 773,-912.5"/>
<polygon fill="#000000" stroke="#000000" points="650.6932,-1847.0419 639.8939,-1845.1381 645.8466,-1848.2709 641,-1849.5 641,-1849.5 641,-1849.5 645.8466,-1848.2709 642.1061,-1853.8619 650.6932,-1847.0419 650.6932,-1847.0419"/>
<text text-anchor="start" x="65.8135" y="-1859.5" font-family="Arial" font-size="10.00" fill="#000000">FOREIGN KEY (starsearch_thread_id) REFERENCES starsearch_threads(id) ON UPDATE CASCADE ON DELETE CASCADE</text>
</g>
<!-- public.users -->
<g id="node3" class="node">
<title>public.users</title>
<polygon fill="#efefef" stroke="transparent" points="284,-1542.5 284,-1577.5 635,-1577.5 635,-1542.5 284,-1542.5"/>
<polygon fill="none" stroke="#000000" points="284,-1542.5 284,-1577.5 635,-1577.5 635,-1542.5 284,-1542.5"/>
<text text-anchor="start" x="362.8662" y="-1555.3" font-family="Arial Bold" font-size="18.00" fill="#000000">public.users</text>
<text text-anchor="start" x="458.88" y="-1555.3" font-family="Arial" font-size="14.00" fill="#000000"> </text>
<text text-anchor="start" x="462.7706" y="-1555.3" font-family="Arial" font-size="14.00" fill="#666666">[BASE TABLE]</text>
<polygon fill="none" stroke="#000000" points="284,-1512.5 284,-1542.5 635,-1542.5 635,-1512.5 284,-1512.5"/>
<text text-anchor="start" x="291" y="-1523.9" font-family="Arial" font-size="14.00" fill="#000000">id </text>
<text text-anchor="start" x="305.7798" y="-1523.9" font-family="Arial" font-size="14.00" fill="#666666">[bigint]</text>
<polygon fill="none" stroke="#000000" points="284,-1482.5 284,-1512.5 635,-1512.5 635,-1482.5 284,-1482.5"/>
<text text-anchor="start" x="291" y="-1493.9" font-family="Arial" font-size="14.00" fill="#000000">open_issues </text>
<text text-anchor="start" x="373.4754" y="-1493.9" font-family="Arial" font-size="14.00" fill="#666666">[bigint]</text>
<polygon fill="none" stroke="#000000" points="284,-1452.5 284,-1482.5 635,-1482.5 635,-1452.5 284,-1452.5"/>
<text text-anchor="start" x="291" y="-1463.9" font-family="Arial" font-size="14.00" fill="#000000">public_repos </text>
<text text-anchor="start" x="374.2426" y="-1463.9" font-family="Arial" font-size="14.00" fill="#666666">[bigint]</text>
<polygon fill="none" stroke="#000000" points="284,-1422.5 284,-1452.5 635,-1452.5 635,-1422.5 284,-1422.5"/>
<text text-anchor="start" x="291" y="-1433.9" font-family="Arial" font-size="14.00" fill="#000000">public_gists </text>
<text text-anchor="start" x="368.014" y="-1433.9" font-family="Arial" font-size="14.00" fill="#666666">[bigint]</text>
<polygon fill="none" stroke="#000000" points="284,-1392.5 284,-1422.5 635,-1422.5 635,-1392.5 284,-1392.5"/>
<text text-anchor="start" x="291" y="-1403.9" font-family="Arial" font-size="14.00" fill="#000000">followers </text>
<text text-anchor="start" x="350.1094" y="-1403.9" font-family="Arial" font-size="14.00" fill="#666666">[bigint]</text>
<polygon fill="none" stroke="#000000" points="284,-1362.5 284,-1392.5 635,-1392.5 635,-1362.5 284,-1362.5"/>
<text text-anchor="start" x="291" y="-1373.9" font-family="Arial" font-size="14.00" fill="#000000">following </text>
<text text-anchor="start" x="349.338" y="-1373.9" font-family="Arial" font-size="14.00" fill="#666666">[bigint]</text>
<polygon fill="none" stroke="#000000" points="284,-1332.5 284,-1362.5 635,-1362.5 635,-1332.5 284,-1332.5"/>
<text text-anchor="start" x="291" y="-1343.9" font-family="Arial" font-size="14.00" fill="#000000">role </text>
<text text-anchor="start" x="318.223" y="-1343.9" font-family="Arial" font-size="14.00" fill="#666666">[bigint]</text>
<polygon fill="none" stroke="#000000" points="284,-1302.5 284,-1332.5 635,-1332.5 635,-1302.5 284,-1302.5"/>
<text text-anchor="start" x="291" y="-1313.9" font-family="Arial" font-size="14.00" fill="#000000">display_local_time </text>
<text text-anchor="start" x="409.2356" y="-1313.9" font-family="Arial" font-size="14.00" fill="#666666">[boolean]</text>
<polygon fill="none" stroke="#000000" points="284,-1272.5 284,-1302.5 635,-1302.5 635,-1272.5 284,-1272.5"/>
<text text-anchor="start" x="291" y="-1283.9" font-family="Arial" font-size="14.00" fill="#000000">has_stars_data </text>
<text text-anchor="start" x="390.5932" y="-1283.9" font-family="Arial" font-size="14.00" fill="#666666">[boolean]</text>
<polygon fill="none" stroke="#000000" points="284,-1242.5 284,-1272.5 635,-1272.5 635,-1242.5 284,-1242.5"/>
<text text-anchor="start" x="291" y="-1253.9" font-family="Arial" font-size="14.00" fill="#000000">is_private </text>
<text text-anchor="start" x="354.7854" y="-1253.9" font-family="Arial" font-size="14.00" fill="#666666">[boolean]</text>
<polygon fill="none" stroke="#000000" points="284,-1212.5 284,-1242.5 635,-1242.5 635,-1212.5 284,-1212.5"/>
<text text-anchor="start" x="291" y="-1223.9" font-family="Arial" font-size="14.00" fill="#000000">is_open_sauced_member </text>
<text text-anchor="start" x="455.9354" y="-1223.9" font-family="Arial" font-size="14.00" fill="#666666">[boolean]</text>
<polygon fill="none" stroke="#000000" points="284,-1182.5 284,-1212.5 635,-1212.5 635,-1182.5 284,-1182.5"/>
<text text-anchor="start" x="291" y="-1193.9" font-family="Arial" font-size="14.00" fill="#000000">is_onboarded </text>
<text text-anchor="start" x="379.7012" y="-1193.9" font-family="Arial" font-size="14.00" fill="#666666">[boolean]</text>
<polygon fill="none" stroke="#000000" points="284,-1152.5 284,-1182.5 635,-1182.5 635,-1152.5 284,-1152.5"/>
<text text-anchor="start" x="291" y="-1163.9" font-family="Arial" font-size="14.00" fill="#000000">is_waitlisted </text>
<text text-anchor="start" x="370.3352" y="-1163.9" font-family="Arial" font-size="14.00" fill="#666666">[boolean]</text>
<polygon fill="none" stroke="#000000" points="284,-1122.5 284,-1152.5 635,-1152.5 635,-1122.5 284,-1122.5"/>
<text text-anchor="start" x="291" y="-1133.9" font-family="Arial" font-size="14.00" fill="#000000">hireable </text>
<text text-anchor="start" x="344.6774" y="-1133.9" font-family="Arial" font-size="14.00" fill="#666666">[boolean]</text>
<polygon fill="none" stroke="#000000" points="284,-1092.5 284,-1122.5 635,-1122.5 635,-1092.5 284,-1092.5"/>
<text text-anchor="start" x="291" y="-1103.9" font-family="Arial" font-size="14.00" fill="#000000">display_email </text>
<text text-anchor="start" x="379.6732" y="-1103.9" font-family="Arial" font-size="14.00" fill="#666666">[boolean]</text>
<polygon fill="none" stroke="#000000" points="284,-1062.5 284,-1092.5 635,-1092.5 635,-1062.5 284,-1062.5"/>
<text text-anchor="start" x="291" y="-1073.9" font-family="Arial" font-size="14.00" fill="#000000">receive_collaboration </text>
<text text-anchor="start" x="427.1374" y="-1073.9" font-family="Arial" font-size="14.00" fill="#666666">[boolean]</text>
<polygon fill="none" stroke="#000000" points="284,-1032.5 284,-1062.5 635,-1062.5 635,-1032.5 284,-1032.5"/>
<text text-anchor="start" x="291" y="-1043.9" font-family="Arial" font-size="14.00" fill="#000000">created_at </text>
<text text-anchor="start" x="361.028" y="-1043.9" font-family="Arial" font-size="14.00" fill="#666666">[timestamp without time zone]</text>
<polygon fill="none" stroke="#000000" points="284,-1002.5 284,-1032.5 635,-1032.5 635,-1002.5 284,-1002.5"/>
<text text-anchor="start" x="291" y="-1013.9" font-family="Arial" font-size="14.00" fill="#000000">updated_at </text>
<text text-anchor="start" x="364.9326" y="-1013.9" font-family="Arial" font-size="14.00" fill="#666666">[timestamp without time zone]</text>
<polygon fill="none" stroke="#000000" points="284,-972.5 284,-1002.5 635,-1002.5 635,-972.5 284,-972.5"/>
<text text-anchor="start" x="291" y="-983.9" font-family="Arial" font-size="14.00" fill="#000000">deleted_at </text>
<text text-anchor="start" x="360.2566" y="-983.9" font-family="Arial" font-size="14.00" fill="#666666">[timestamp without time zone]</text>
<polygon fill="none" stroke="#000000" points="284,-942.5 284,-972.5 635,-972.5 635,-942.5 284,-942.5"/>
<text text-anchor="start" x="291" y="-953.9" font-family="Arial" font-size="14.00" fill="#000000">type </text>
<text text-anchor="start" x="321.3464" y="-953.9" font-family="Arial" font-size="14.00" fill="#666666">[varchar(20)]</text>
<polygon fill="none" stroke="#000000" points="284,-912.5 284,-942.5 635,-942.5 635,-912.5 284,-912.5"/>
<text text-anchor="start" x="291" y="-923.9" font-family="Arial" font-size="14.00" fill="#000000">timezone </text>
<text text-anchor="start" x="351.6788" y="-923.9" font-family="Arial" font-size="14.00" fill="#666666">[varchar(50)]</text>
<polygon fill="none" stroke="#000000" points="284,-882.5 284,-912.5 635,-912.5 635,-882.5 284,-882.5"/>
<text text-anchor="start" x="291" y="-893.9" font-family="Arial" font-size="14.00" fill="#000000">login </text>
<text text-anchor="start" x="324.4516" y="-893.9" font-family="Arial" font-size="14.00" fill="#666666">[varchar(255)]</text>
<polygon fill="none" stroke="#000000" points="284,-852.5 284,-882.5 635,-882.5 635,-852.5 284,-852.5"/>
<text text-anchor="start" x="291" y="-863.9" font-family="Arial" font-size="14.00" fill="#000000">email </text>
<text text-anchor="start" x="328.3296" y="-863.9" font-family="Arial" font-size="14.00" fill="#666666">[varchar(255)]</text>
<polygon fill="none" stroke="#000000" points="284,-822.5 284,-852.5 635,-852.5 635,-822.5 284,-822.5"/>
<text text-anchor="start" x="291" y="-833.9" font-family="Arial" font-size="14.00" fill="#000000">bio </text>
<text text-anchor="start" x="313.5624" y="-833.9" font-family="Arial" font-size="14.00" fill="#666666">[varchar(255)]</text>
<polygon fill="none" stroke="#000000" points="284,-792.5 284,-822.5 635,-822.5 635,-792.5 284,-792.5"/>
<text text-anchor="start" x="291" y="-803.9" font-family="Arial" font-size="14.00" fill="#000000">name </text>
<text text-anchor="start" x="329.899" y="-803.9" font-family="Arial" font-size="14.00" fill="#666666">[varchar(255)]</text>
<polygon fill="none" stroke="#000000" points="284,-762.5 284,-792.5 635,-792.5 635,-762.5 284,-762.5"/>
<text text-anchor="start" x="291" y="-773.9" font-family="Arial" font-size="14.00" fill="#000000">twitter_username </text>
<text text-anchor="start" x="402.2356" y="-773.9" font-family="Arial" font-size="14.00" fill="#666666">[varchar(15)]</text>
<polygon fill="none" stroke="#000000" points="284,-732.5 284,-762.5 635,-762.5 635,-732.5 284,-732.5"/>
<text text-anchor="start" x="291" y="-743.9" font-family="Arial" font-size="14.00" fill="#000000">company </text>
<text text-anchor="start" x="351.6816" y="-743.9" font-family="Arial" font-size="14.00" fill="#666666">[varchar(255)]</text>
<polygon fill="none" stroke="#000000" points="284,-702.5 284,-732.5 635,-732.5 635,-702.5 284,-702.5"/>
<text text-anchor="start" x="291" y="-713.9" font-family="Arial" font-size="14.00" fill="#000000">location </text>
<text text-anchor="start" x="343.1248" y="-713.9" font-family="Arial" font-size="14.00" fill="#666666">[varchar(255)]</text>
<polygon fill="none" stroke="#000000" points="284,-672.5 284,-702.5 635,-702.5 635,-672.5 284,-672.5"/>
<text text-anchor="start" x="291" y="-683.9" font-family="Arial" font-size="14.00" fill="#000000">node_id </text>
<text text-anchor="start" x="344.6928" y="-683.9" font-family="Arial" font-size="14.00" fill="#666666">[varchar(50)]</text>
<polygon fill="none" stroke="#000000" points="284,-642.5 284,-672.5 635,-672.5 635,-642.5 284,-642.5"/>
<text text-anchor="start" x="291" y="-653.9" font-family="Arial" font-size="14.00" fill="#000000">avatar_url </text>
<text text-anchor="start" x="357.122" y="-653.9" font-family="Arial" font-size="14.00" fill="#666666">[varchar(255)]</text>
<polygon fill="none" stroke="#000000" points="284,-612.5 284,-642.5 635,-642.5 635,-612.5 284,-612.5"/>
<text text-anchor="start" x="291" y="-623.9" font-family="Arial" font-size="14.00" fill="#000000">gravatar_id </text>
<text text-anchor="start" x="364.9046" y="-623.9" font-family="Arial" font-size="14.00" fill="#666666">[varchar(255)]</text>
<polygon fill="none" stroke="#000000" points="284,-582.5 284,-612.5 635,-612.5 635,-582.5 284,-582.5"/>
<text text-anchor="start" x="291" y="-593.9" font-family="Arial" font-size="14.00" fill="#000000">url </text>
<text text-anchor="start" x="310.4404" y="-593.9" font-family="Arial" font-size="14.00" fill="#666666">[varchar(255)]</text>
<polygon fill="none" stroke="#000000" points="284,-552.5 284,-582.5 635,-582.5 635,-552.5 284,-552.5"/>
<text text-anchor="start" x="291" y="-563.9" font-family="Arial" font-size="14.00" fill="#000000">blog </text>
<text text-anchor="start" x="321.345" y="-563.9" font-family="Arial" font-size="14.00" fill="#666666">[varchar(255)]</text>
<polygon fill="none" stroke="#000000" points="284,-522.5 284,-552.5 635,-552.5 635,-522.5 284,-522.5"/>
<text text-anchor="start" x="291" y="-533.9" font-family="Arial" font-size="14.00" fill="#000000">interests </text>
<text text-anchor="start" x="347.7868" y="-533.9" font-family="Arial" font-size="14.00" fill="#666666">[varchar(200)]</text>
<polygon fill="none" stroke="#000000" points="284,-492.5 284,-522.5 635,-522.5 635,-492.5 284,-492.5"/>
<text text-anchor="start" x="291" y="-503.9" font-family="Arial" font-size="14.00" fill="#000000">linkedin_url </text>
<text text-anchor="start" x="365.6732" y="-503.9" font-family="Arial" font-size="14.00" fill="#666666">[varchar(255)]</text>
<polygon fill="none" stroke="#000000" points="284,-462.5 284,-492.5 635,-492.5 635,-462.5 284,-462.5"/>
<text text-anchor="start" x="291" y="-473.9" font-family="Arial" font-size="14.00" fill="#000000">github_sponsors_url </text>
<text text-anchor="start" x="420.9242" y="-473.9" font-family="Arial" font-size="14.00" fill="#666666">[varchar(255)]</text>
<polygon fill="none" stroke="#000000" points="284,-432.5 284,-462.5 635,-462.5 635,-432.5 284,-432.5"/>
<text text-anchor="start" x="291" y="-443.9" font-family="Arial" font-size="14.00" fill="#000000">last_fetched_users_at </text>
<text text-anchor="start" x="431.8288" y="-443.9" font-family="Arial" font-size="14.00" fill="#666666">[timestamp without time zone]</text>
<polygon fill="none" stroke="#000000" points="284,-402.5 284,-432.5 635,-432.5 635,-402.5 284,-402.5"/>
<text text-anchor="start" x="291" y="-413.9" font-family="Arial" font-size="14.00" fill="#000000">languages </text>
<text text-anchor="start" x="359.4754" y="-413.9" font-family="Arial" font-size="14.00" fill="#666666">[jsonb]</text>
<polygon fill="none" stroke="#000000" points="284,-372.5 284,-402.5 635,-402.5 635,-372.5 284,-372.5"/>
<text text-anchor="start" x="291" y="-383.9" font-family="Arial" font-size="14.00" fill="#000000">first_opened_pr_at </text>
<text text-anchor="start" x="411.5988" y="-383.9" font-family="Arial" font-size="14.00" fill="#666666">[timestamp without time zone]</text>
<polygon fill="none" stroke="#000000" points="284,-342.5 284,-372.5 635,-372.5 635,-342.5 284,-342.5"/>
<text text-anchor="start" x="290.6929" y="-353.9" font-family="Arial" font-size="14.00" fill="#000000">first_pushed_commit_at </text>
<text text-anchor="start" x="443.1669" y="-353.9" font-family="Arial" font-size="14.00" fill="#666666">[timestamp without time zone]</text>
<polygon fill="none" stroke="#000000" points="284,-312.5 284,-342.5 635,-342.5 635,-312.5 284,-312.5"/>
<text text-anchor="start" x="291" y="-323.9" font-family="Arial" font-size="14.00" fill="#000000">connected_at </text>
<text text-anchor="start" x="378.9326" y="-323.9" font-family="Arial" font-size="14.00" fill="#666666">[timestamp without time zone]</text>
<polygon fill="none" stroke="#000000" points="284,-282.5 284,-312.5 635,-312.5 635,-282.5 284,-282.5"/>
<text text-anchor="start" x="291" y="-293.9" font-family="Arial" font-size="14.00" fill="#000000">discord_url </text>
<text text-anchor="start" x="363.338" y="-293.9" font-family="Arial" font-size="14.00" fill="#666666">[varchar(255)]</text>
<polygon fill="none" stroke="#000000" points="284,-252.5 284,-282.5 635,-282.5 635,-252.5 284,-252.5"/>
<text text-anchor="start" x="291" y="-263.9" font-family="Arial" font-size="14.00" fill="#000000">coupon_code </text>
<text text-anchor="start" x="378.934" y="-263.9" font-family="Arial" font-size="14.00" fill="#666666">[varchar]</text>
<polygon fill="none" stroke="#000000" points="284,-222.5 284,-252.5 635,-252.5 635,-222.5 284,-222.5"/>
<text text-anchor="start" x="291" y="-233.9" font-family="Arial" font-size="14.00" fill="#000000">receive_product_updates </text>
<text text-anchor="start" x="452.056" y="-233.9" font-family="Arial" font-size="14.00" fill="#666666">[boolean]</text>
<polygon fill="none" stroke="#000000" points="284,-192.5 284,-222.5 635,-222.5 635,-192.5 284,-192.5"/>
<text text-anchor="start" x="291" y="-203.9" font-family="Arial" font-size="14.00" fill="#000000">campaign_start_date </text>
<text text-anchor="start" x="425.5988" y="-203.9" font-family="Arial" font-size="14.00" fill="#666666">[timestamp without time zone]</text>
<polygon fill="none" stroke="#000000" points="284,-162.5 284,-192.5 635,-192.5 635,-162.5 284,-162.5"/>
<text text-anchor="start" x="291" y="-173.9" font-family="Arial" font-size="14.00" fill="#000000">personal_workspace_id </text>
<text text-anchor="start" x="441.9228" y="-173.9" font-family="Arial" font-size="14.00" fill="#666666">[uuid]</text>
<polygon fill="none" stroke="#000000" points="284,-132.5 284,-162.5 635,-162.5 635,-132.5 284,-132.5"/>
<text text-anchor="start" x="291" y="-143.9" font-family="Arial" font-size="14.00" fill="#000000">accepted_usage_terms </text>
<text text-anchor="start" x="440.3842" y="-143.9" font-family="Arial" font-size="14.00" fill="#666666">[boolean]</text>
<polygon fill="none" stroke="#000000" points="284,-102.5 284,-132.5 635,-132.5 635,-102.5 284,-102.5"/>
<text text-anchor="start" x="291" y="-113.9" font-family="Arial" font-size="14.00" fill="#000000">fetch_error </text>
<text text-anchor="start" x="362.5666" y="-113.9" font-family="Arial" font-size="14.00" fill="#666666">[boolean]</text>
<polygon fill="none" stroke="#000000" points="284,-72.5 284,-102.5 635,-102.5 635,-72.5 284,-72.5"/>
<text text-anchor="start" x="291" y="-83.9" font-family="Arial" font-size="14.00" fill="#000000">oscr </text>
<text text-anchor="start" x="321.3338" y="-83.9" font-family="Arial" font-size="14.00" fill="#666666">[double precision]</text>
<polygon fill="none" stroke="#000000" points="284,-42.5 284,-72.5 635,-72.5 635,-42.5 284,-42.5"/>
<text text-anchor="start" x="291" y="-53.9" font-family="Arial" font-size="14.00" fill="#000000">devstats_updated_at </text>
<text text-anchor="start" x="424.8442" y="-53.9" font-family="Arial" font-size="14.00" fill="#666666">[timestamp without time zone]</text>
</g>
<!-- public.starsearch_user_threads&#45;&gt;public.users -->
<g id="edge2" class="edge">
<title>public.starsearch_user_threads:user_id&#45;&gt;public.users:id</title>
<path fill="none" stroke="#000000" d="M460.3831,-1794.3552C468.2303,-1693.7812 594.4188,-1722.3532 635,-1621 650.4465,-1582.4219 676.5556,-1527.5 635,-1527.5"/>
<polygon fill="#000000" stroke="#000000" points="460.3775,-1794.5071 455.5032,-1804.3301 460.1887,-1799.5036 460,-1804.5 460,-1804.5 460,-1804.5 460.1887,-1799.5036 464.4968,-1804.6699 460.3775,-1794.5071 460.3775,-1794.5071"/>
<text text-anchor="start" x="6.9425" y="-1814.5" font-family="Arial" font-size="10.00" fill="#000000">FOREIGN KEY (user_id) REFERENCES users(id) ON UPDATE CASCADE ON DELETE CASCADE</text>
</g>
<!-- public.starsearch_thread_history -->
<g id="node4" class="node">
<title>public.starsearch_thread_history</title>
<polygon fill="#efefef" stroke="transparent" points="746,-2089.5 746,-2124.5 1117,-2124.5 1117,-2089.5 746,-2089.5"/>
<polygon fill="none" stroke="#000000" points="746,-2089.5 746,-2124.5 1117,-2124.5 1117,-2089.5 746,-2089.5"/>
<text text-anchor="start" x="752.8465" y="-2102.3" font-family="Arial Bold" font-size="18.00" fill="#000000">public.starsearch_thread_history</text>
<text text-anchor="start" x="1012.8997" y="-2102.3" font-family="Arial" font-size="14.00" fill="#000000"> </text>
<text text-anchor="start" x="1016.7903" y="-2102.3" font-family="Arial" font-size="14.00" fill="#666666">[BASE TABLE]</text>
<polygon fill="none" stroke="#000000" points="746,-2059.5 746,-2089.5 1117,-2089.5 1117,-2059.5 746,-2059.5"/>
<text text-anchor="start" x="753" y="-2070.9" font-family="Arial" font-size="14.00" fill="#000000">id </text>
<text text-anchor="start" x="767.7798" y="-2070.9" font-family="Arial" font-size="14.00" fill="#666666">[uuid]</text>
<polygon fill="none" stroke="#000000" points="746,-2029.5 746,-2059.5 1117,-2059.5 1117,-2029.5 746,-2029.5"/>
<text text-anchor="start" x="753" y="-2040.9" font-family="Arial" font-size="14.00" fill="#000000">created_at </text>
<text text-anchor="start" x="823.028" y="-2040.9" font-family="Arial" font-size="14.00" fill="#666666">[timestamp without time zone]</text>
<polygon fill="none" stroke="#000000" points="746,-1999.5 746,-2029.5 1117,-2029.5 1117,-1999.5 746,-1999.5"/>
<text text-anchor="start" x="753" y="-2010.9" font-family="Arial" font-size="14.00" fill="#000000">updated_at </text>
<text text-anchor="start" x="826.9326" y="-2010.9" font-family="Arial" font-size="14.00" fill="#666666">[timestamp without time zone]</text>
<polygon fill="none" stroke="#000000" points="746,-1969.5 746,-1999.5 1117,-1999.5 1117,-1969.5 746,-1969.5"/>
<text text-anchor="start" x="753" y="-1980.9" font-family="Arial" font-size="14.00" fill="#000000">observed_at </text>
<text text-anchor="start" x="833.92" y="-1980.9" font-family="Arial" font-size="14.00" fill="#666666">[timestamp without time zone]</text>
<polygon fill="none" stroke="#000000" points="746,-1939.5 746,-1969.5 1117,-1969.5 1117,-1939.5 746,-1939.5"/>
<text text-anchor="start" x="753" y="-1950.9" font-family="Arial" font-size="14.00" fill="#000000">deleted_at </text>
<text text-anchor="start" x="822.2566" y="-1950.9" font-family="Arial" font-size="14.00" fill="#666666">[timestamp without time zone]</text>
<polygon fill="none" stroke="#000000" points="746,-1909.5 746,-1939.5 1117,-1939.5 1117,-1909.5 746,-1909.5"/>
<text text-anchor="start" x="753" y="-1920.9" font-family="Arial" font-size="14.00" fill="#000000">starsearch_thread_id </text>
<text text-anchor="start" x="888.3688" y="-1920.9" font-family="Arial" font-size="14.00" fill="#666666">[uuid]</text>
<polygon fill="none" stroke="#000000" points="746,-1879.5 746,-1909.5 1117,-1909.5 1117,-1879.5 746,-1879.5"/>
<text text-anchor="start" x="753" y="-1890.9" font-family="Arial" font-size="14.00" fill="#000000">type </text>
<text text-anchor="start" x="783.3464" y="-1890.9" font-family="Arial" font-size="14.00" fill="#666666">[text]</text>
<polygon fill="none" stroke="#000000" points="746,-1849.5 746,-1879.5 1117,-1879.5 1117,-1849.5 746,-1849.5"/>
<text text-anchor="start" x="753" y="-1860.9" font-family="Arial" font-size="14.00" fill="#000000">message </text>
<text text-anchor="start" x="813.6816" y="-1860.9" font-family="Arial" font-size="14.00" fill="#666666">[text]</text>
<polygon fill="none" stroke="#000000" points="746,-1819.5 746,-1849.5 1117,-1849.5 1117,-1819.5 746,-1819.5"/>
<text text-anchor="start" x="753" y="-1830.9" font-family="Arial" font-size="14.00" fill="#000000">is_error </text>
<text text-anchor="start" x="804.3268" y="-1830.9" font-family="Arial" font-size="14.00" fill="#666666">[boolean]</text>
<polygon fill="none" stroke="#000000" points="746,-1789.5 746,-1819.5 1117,-1819.5 1117,-1789.5 746,-1789.5"/>
<text text-anchor="start" x="753" y="-1800.9" font-family="Arial" font-size="14.00" fill="#000000">error </text>
<text text-anchor="start" x="786.4376" y="-1800.9" font-family="Arial" font-size="14.00" fill="#666666">[text]</text>
<polygon fill="none" stroke="#000000" points="746,-1759.5 746,-1789.5 1117,-1789.5 1117,-1759.5 746,-1759.5"/>
<text text-anchor="start" x="753" y="-1770.9" font-family="Arial" font-size="14.00" fill="#000000">actor </text>
<text text-anchor="start" x="788.007" y="-1770.9" font-family="Arial" font-size="14.00" fill="#666666">[text]</text>
<polygon fill="none" stroke="#000000" points="746,-1729.5 746,-1759.5 1117,-1759.5 1117,-1729.5 746,-1729.5"/>
<text text-anchor="start" x="753" y="-1740.9" font-family="Arial" font-size="14.00" fill="#000000">mood </text>
<text text-anchor="start" x="791.899" y="-1740.9" font-family="Arial" font-size="14.00" fill="#666666">[integer]</text>
<polygon fill="none" stroke="#000000" points="746,-1699.5 746,-1729.5 1117,-1729.5 1117,-1699.5 746,-1699.5"/>
<text text-anchor="start" x="753" y="-1710.9" font-family="Arial" font-size="14.00" fill="#000000">embedding </text>
<text text-anchor="start" x="826.136" y="-1710.9" font-family="Arial" font-size="14.00" fill="#666666">[vector(1024)]</text>
</g>
<!-- public.starsearch_thread_history&#45;&gt;public.starsearch_threads -->
<g id="edge3" class="edge">
<title>public.starsearch_thread_history:starsearch_thread_id&#45;&gt;public.starsearch_threads:id</title>
<path fill="none" stroke="#000000" d="M738.4921,-1917.77C692.4087,-1829.9657 719.449,-912.5 773,-912.5"/>
<polygon fill="#000000" stroke="#000000" points="738.5537,-1917.8252 742.9963,-1927.8509 742.2768,-1921.1626 746,-1924.5 746,-1924.5 746,-1924.5 742.2768,-1921.1626 749.0037,-1921.1491 738.5537,-1917.8252 738.5537,-1917.8252"/>
<text text-anchor="start" x="461.8135" y="-1908.5" font-family="Arial" font-size="10.00" fill="#000000">FOREIGN KEY (starsearch_thread_id) REFERENCES starsearch_threads(id) ON UPDATE CASCADE ON DELETE CASCADE</text>
</g>
<!-- public.starsearch_workspace_threads -->
<g id="node5" class="node">
<title>public.starsearch_workspace_threads</title>
<polygon fill="#efefef" stroke="transparent" points="1221,-1984.5 1221,-2019.5 1634,-2019.5 1634,-1984.5 1221,-1984.5"/>
<polygon fill="none" stroke="#000000" points="1221,-1984.5 1221,-2019.5 1634,-2019.5 1634,-1984.5 1221,-1984.5"/>
<text text-anchor="start" x="1227.8414" y="-1997.3" font-family="Arial Bold" font-size="18.00" fill="#000000">public.starsearch_workspace_threads</text>
<text text-anchor="start" x="1529.9048" y="-1997.3" font-family="Arial" font-size="14.00" fill="#000000"> </text>
<text text-anchor="start" x="1533.7954" y="-1997.3" font-family="Arial" font-size="14.00" fill="#666666">[BASE TABLE]</text>
<polygon fill="none" stroke="#000000" points="1221,-1954.5 1221,-1984.5 1634,-1984.5 1634,-1954.5 1221,-1954.5"/>
<text text-anchor="start" x="1228" y="-1965.9" font-family="Arial" font-size="14.00" fill="#000000">id </text>
<text text-anchor="start" x="1242.7798" y="-1965.9" font-family="Arial" font-size="14.00" fill="#666666">[uuid]</text>
<polygon fill="none" stroke="#000000" points="1221,-1924.5 1221,-1954.5 1634,-1954.5 1634,-1924.5 1221,-1924.5"/>
<text text-anchor="start" x="1228" y="-1935.9" font-family="Arial" font-size="14.00" fill="#000000">created_at </text>
<text text-anchor="start" x="1298.028" y="-1935.9" font-family="Arial" font-size="14.00" fill="#666666">[timestamp without time zone]</text>
<polygon fill="none" stroke="#000000" points="1221,-1894.5 1221,-1924.5 1634,-1924.5 1634,-1894.5 1221,-1894.5"/>
<text text-anchor="start" x="1228" y="-1905.9" font-family="Arial" font-size="14.00" fill="#000000">updated_at </text>
<text text-anchor="start" x="1301.9326" y="-1905.9" font-family="Arial" font-size="14.00" fill="#666666">[timestamp without time zone]</text>
<polygon fill="none" stroke="#000000" points="1221,-1864.5 1221,-1894.5 1634,-1894.5 1634,-1864.5 1221,-1864.5"/>
<text text-anchor="start" x="1228" y="-1875.9" font-family="Arial" font-size="14.00" fill="#000000">deleted_at </text>
<text text-anchor="start" x="1297.2566" y="-1875.9" font-family="Arial" font-size="14.00" fill="#666666">[timestamp without time zone]</text>
<polygon fill="none" stroke="#000000" points="1221,-1834.5 1221,-1864.5 1634,-1864.5 1634,-1834.5 1221,-1834.5"/>
<text text-anchor="start" x="1228" y="-1845.9" font-family="Arial" font-size="14.00" fill="#000000">starsearch_thread_id </text>
<text text-anchor="start" x="1363.3688" y="-1845.9" font-family="Arial" font-size="14.00" fill="#666666">[uuid]</text>
<polygon fill="none" stroke="#000000" points="1221,-1804.5 1221,-1834.5 1634,-1834.5 1634,-1804.5 1221,-1804.5"/>
<text text-anchor="start" x="1228" y="-1815.9" font-family="Arial" font-size="14.00" fill="#000000">workspace_id </text>
<text text-anchor="start" x="1317.46" y="-1815.9" font-family="Arial" font-size="14.00" fill="#666666">[uuid]</text>
</g>
<!-- public.starsearch_workspace_threads&#45;&gt;public.starsearch_threads -->
<g id="edge4" class="edge">
<title>public.starsearch_workspace_threads:starsearch_thread_id&#45;&gt;public.starsearch_threads:id</title>
<path fill="none" stroke="#000000" d="M1213.3385,-1842.7588C1165.7944,-1758.4903 1139.944,-912.5 1090,-912.5"/>
<polygon fill="#000000" stroke="#000000" points="1213.4924,-1842.8942 1218.0274,-1852.8784 1217.2462,-1846.1971 1221,-1849.5 1221,-1849.5 1221,-1849.5 1217.2462,-1846.1971 1223.9726,-1846.1216 1213.4924,-1842.8942 1213.4924,-1842.8942"/>
<text text-anchor="start" x="1227.8135" y="-1859.5" font-family="Arial" font-size="10.00" fill="#000000">FOREIGN KEY (starsearch_thread_id) REFERENCES starsearch_threads(id) ON UPDATE CASCADE ON DELETE CASCADE</text>
</g>
<!-- public.workspaces -->
<g id="node6" class="node">
<title>public.workspaces</title>
<polygon fill="#efefef" stroke="transparent" points="1291,-912.5 1291,-947.5 1564,-947.5 1564,-912.5 1291,-912.5"/>
<polygon fill="none" stroke="#000000" points="1291,-912.5 1291,-947.5 1564,-947.5 1564,-912.5 1291,-912.5"/>
<text text-anchor="start" x="1305.3629" y="-925.3" font-family="Arial Bold" font-size="18.00" fill="#000000">public.workspaces</text>
<text text-anchor="start" x="1452.3833" y="-925.3" font-family="Arial" font-size="14.00" fill="#000000"> </text>
<text text-anchor="start" x="1456.2739" y="-925.3" font-family="Arial" font-size="14.00" fill="#666666">[BASE TABLE]</text>
<polygon fill="none" stroke="#000000" points="1291,-882.5 1291,-912.5 1564,-912.5 1564,-882.5 1291,-882.5"/>
<text text-anchor="start" x="1298" y="-893.9" font-family="Arial" font-size="14.00" fill="#000000">id </text>
<text text-anchor="start" x="1312.7798" y="-893.9" font-family="Arial" font-size="14.00" fill="#666666">[uuid]</text>
<polygon fill="none" stroke="#000000" points="1291,-852.5 1291,-882.5 1564,-882.5 1564,-852.5 1291,-852.5"/>
<text text-anchor="start" x="1298" y="-863.9" font-family="Arial" font-size="14.00" fill="#000000">created_at </text>
<text text-anchor="start" x="1368.028" y="-863.9" font-family="Arial" font-size="14.00" fill="#666666">[timestamp without time zone]</text>
<polygon fill="none" stroke="#000000" points="1291,-822.5 1291,-852.5 1564,-852.5 1564,-822.5 1291,-822.5"/>
<text text-anchor="start" x="1297.9636" y="-833.9" font-family="Arial" font-size="14.00" fill="#000000">updated_at </text>
<text text-anchor="start" x="1371.8962" y="-833.9" font-family="Arial" font-size="14.00" fill="#666666">[timestamp without time zone]</text>
<polygon fill="none" stroke="#000000" points="1291,-792.5 1291,-822.5 1564,-822.5 1564,-792.5 1291,-792.5"/>
<text text-anchor="start" x="1298" y="-803.9" font-family="Arial" font-size="14.00" fill="#000000">deleted_at </text>
<text text-anchor="start" x="1367.2566" y="-803.9" font-family="Arial" font-size="14.00" fill="#666666">[timestamp without time zone]</text>
<polygon fill="none" stroke="#000000" points="1291,-762.5 1291,-792.5 1564,-792.5 1564,-762.5 1291,-762.5"/>
<text text-anchor="start" x="1298" y="-773.9" font-family="Arial" font-size="14.00" fill="#000000">name </text>
<text text-anchor="start" x="1336.899" y="-773.9" font-family="Arial" font-size="14.00" fill="#666666">[varchar(255)]</text>
<polygon fill="none" stroke="#000000" points="1291,-732.5 1291,-762.5 1564,-762.5 1564,-732.5 1291,-732.5"/>
<text text-anchor="start" x="1298" y="-743.9" font-family="Arial" font-size="14.00" fill="#000000">description </text>
<text text-anchor="start" x="1369.568" y="-743.9" font-family="Arial" font-size="14.00" fill="#666666">[varchar(255)]</text>
<polygon fill="none" stroke="#000000" points="1291,-702.5 1291,-732.5 1564,-732.5 1564,-702.5 1291,-702.5"/>
<text text-anchor="start" x="1298" y="-713.9" font-family="Arial" font-size="14.00" fill="#000000">is_public </text>
<text text-anchor="start" x="1356.3408" y="-713.9" font-family="Arial" font-size="14.00" fill="#666666">[boolean]</text>
<polygon fill="none" stroke="#000000" points="1291,-672.5 1291,-702.5 1564,-702.5 1564,-672.5 1291,-672.5"/>
<text text-anchor="start" x="1298" y="-683.9" font-family="Arial" font-size="14.00" fill="#000000">payee_user_id </text>
<text text-anchor="start" x="1393.7012" y="-683.9" font-family="Arial" font-size="14.00" fill="#666666">[bigint]</text>
</g>
<!-- public.starsearch_workspace_threads&#45;&gt;public.workspaces -->
<g id="edge5" class="edge">
<title>public.starsearch_workspace_threads:workspace_id&#45;&gt;public.workspaces:id</title>
<path fill="none" stroke="#000000" d="M1427.7382,-1794.2624C1417.1573,-1578.1803 1090.4427,-897.5 1291,-897.5"/>
<polygon fill="#000000" stroke="#000000" points="1427.7443,-1794.5033 1423.5015,-1804.6151 1427.8721,-1799.5016 1428,-1804.5 1428,-1804.5 1428,-1804.5 1427.8721,-1799.5016 1432.4985,-1804.3849 1427.7443,-1794.5033 1427.7443,-1794.5033"/>
<text text-anchor="start" x="1434.6055" y="-1814.5" font-family="Arial" font-size="10.00" fill="#000000">FOREIGN KEY (workspace_id) REFERENCES workspaces(id) ON UPDATE CASCADE ON DELETE CASCADE</text>
</g>
</g>
</svg>
