<?xml version="1.0" encoding="UTF-8" standalone="no"?>
<!DOCTYPE svg PUBLIC "-//W3C//DTD SVG 1.1//EN"
 "http://www.w3.org/Graphics/SVG/1.1/DTD/svg11.dtd">
<!-- Generated by graphviz version 2.40.1 (20161225.0304)
 -->
<!-- Title: public.starsearch_thread_history Pages: 1 -->
<svg width="1746pt" height="952pt"
 viewBox="0.00 0.00 1746.00 952.00" xmlns="http://www.w3.org/2000/svg" xmlns:xlink="http://www.w3.org/1999/xlink">
<g id="graph0" class="graph" transform="scale(1 1) rotate(0) translate(4 948)">
<title>public.starsearch_thread_history</title>
<polygon fill="#ffffff" stroke="transparent" points="-4,4 -4,-948 1742,-948 1742,4 -4,4"/>
<!-- public.starsearch_thread_history -->
<g id="node1" class="node">
<title>public.starsearch_thread_history</title>
<polygon fill="#efefef" stroke="transparent" points="211,-862.5 211,-897.5 582,-897.5 582,-862.5 211,-862.5"/>
<polygon fill="none" stroke="#000000" points="211,-862.5 211,-897.5 582,-897.5 582,-862.5 211,-862.5"/>
<text text-anchor="start" x="217.8465" y="-875.3" font-family="Arial Bold" font-size="18.00" fill="#000000">public.starsearch_thread_history</text>
<text text-anchor="start" x="477.8997" y="-875.3" font-family="Arial" font-size="14.00" fill="#000000"> </text>
<text text-anchor="start" x="481.7903" y="-875.3" font-family="Arial" font-size="14.00" fill="#666666">[BASE TABLE]</text>
<polygon fill="none" stroke="#000000" points="211,-832.5 211,-862.5 582,-862.5 582,-832.5 211,-832.5"/>
<text text-anchor="start" x="218" y="-843.9" font-family="Arial" font-size="14.00" fill="#000000">id </text>
<text text-anchor="start" x="232.7798" y="-843.9" font-family="Arial" font-size="14.00" fill="#666666">[uuid]</text>
<polygon fill="none" stroke="#000000" points="211,-802.5 211,-832.5 582,-832.5 582,-802.5 211,-802.5"/>
<text text-anchor="start" x="218" y="-813.9" font-family="Arial" font-size="14.00" fill="#000000">created_at </text>
<text text-anchor="start" x="288.028" y="-813.9" font-family="Arial" font-size="14.00" fill="#666666">[timestamp without time zone]</text>
<polygon fill="none" stroke="#000000" points="211,-772.5 211,-802.5 582,-802.5 582,-772.5 211,-772.5"/>
<text text-anchor="start" x="218" y="-783.9" font-family="Arial" font-size="14.00" fill="#000000">updated_at </text>
<text text-anchor="start" x="291.9326" y="-783.9" font-family="Arial" font-size="14.00" fill="#666666">[timestamp without time zone]</text>
<polygon fill="none" stroke="#000000" points="211,-742.5 211,-772.5 582,-772.5 582,-742.5 211,-742.5"/>
<text text-anchor="start" x="218" y="-753.9" font-family="Arial" font-size="14.00" fill="#000000">observed_at </text>
<text text-anchor="start" x="298.92" y="-753.9" font-family="Arial" font-size="14.00" fill="#666666">[timestamp without time zone]</text>
<polygon fill="none" stroke="#000000" points="211,-712.5 211,-742.5 582,-742.5 582,-712.5 211,-712.5"/>
<text text-anchor="start" x="218" y="-723.9" font-family="Arial" font-size="14.00" fill="#000000">deleted_at </text>
<text text-anchor="start" x="287.2566" y="-723.9" font-family="Arial" font-size="14.00" fill="#666666">[timestamp without time zone]</text>
<polygon fill="none" stroke="#000000" points="211,-682.5 211,-712.5 582,-712.5 582,-682.5 211,-682.5"/>
<text text-anchor="start" x="218" y="-693.9" font-family="Arial" font-size="14.00" fill="#000000">starsearch_thread_id </text>
<text text-anchor="start" x="353.3688" y="-693.9" font-family="Arial" font-size="14.00" fill="#666666">[uuid]</text>
<polygon fill="none" stroke="#000000" points="211,-652.5 211,-682.5 582,-682.5 582,-652.5 211,-652.5"/>
<text text-anchor="start" x="218" y="-663.9" font-family="Arial" font-size="14.00" fill="#000000">type </text>
<text text-anchor="start" x="248.3464" y="-663.9" font-family="Arial" font-size="14.00" fill="#666666">[text]</text>
<polygon fill="none" stroke="#000000" points="211,-622.5 211,-652.5 582,-652.5 582,-622.5 211,-622.5"/>
<text text-anchor="start" x="218" y="-633.9" font-family="Arial" font-size="14.00" fill="#000000">message </text>
<text text-anchor="start" x="278.6816" y="-633.9" font-family="Arial" font-size="14.00" fill="#666666">[text]</text>
<polygon fill="none" stroke="#000000" points="211,-592.5 211,-622.5 582,-622.5 582,-592.5 211,-592.5"/>
<text text-anchor="start" x="218" y="-603.9" font-family="Arial" font-size="14.00" fill="#000000">is_error </text>
<text text-anchor="start" x="269.3268" y="-603.9" font-family="Arial" font-size="14.00" fill="#666666">[boolean]</text>
<polygon fill="none" stroke="#000000" points="211,-562.5 211,-592.5 582,-592.5 582,-562.5 211,-562.5"/>
<text text-anchor="start" x="218" y="-573.9" font-family="Arial" font-size="14.00" fill="#000000">error </text>
<text text-anchor="start" x="251.4376" y="-573.9" font-family="Arial" font-size="14.00" fill="#666666">[text]</text>
<polygon fill="none" stroke="#000000" points="211,-532.5 211,-562.5 582,-562.5 582,-532.5 211,-532.5"/>
<text text-anchor="start" x="218" y="-543.9" font-family="Arial" font-size="14.00" fill="#000000">actor </text>
<text text-anchor="start" x="253.007" y="-543.9" font-family="Arial" font-size="14.00" fill="#666666">[text]</text>
<polygon fill="none" stroke="#000000" points="211,-502.5 211,-532.5 582,-532.5 582,-502.5 211,-502.5"/>
<text text-anchor="start" x="218" y="-513.9" font-family="Arial" font-size="14.00" fill="#000000">mood </text>
<text text-anchor="start" x="256.899" y="-513.9" font-family="Arial" font-size="14.00" fill="#666666">[integer]</text>
<polygon fill="none" stroke="#000000" points="211,-472.5 211,-502.5 582,-502.5 582,-472.5 211,-472.5"/>
<text text-anchor="start" x="218" y="-483.9" font-family="Arial" font-size="14.00" fill="#000000">embedding </text>
<text text-anchor="start" x="291.136" y="-483.9" font-family="Arial" font-size="14.00" fill="#666666">[vector(1024)]</text>
<polygon fill="none" stroke="#000000" stroke-width="3" points="209,-471.5 209,-899.5 583,-899.5 583,-471.5 209,-471.5"/>
</g>
<!-- public.starsearch_threads -->
<g id="node2" class="node">
<title>public.starsearch_threads</title>
<polygon fill="#efefef" stroke="transparent" points="711,-312.5 711,-347.5 1028,-347.5 1028,-312.5 711,-312.5"/>
<polygon fill="none" stroke="#000000" points="711,-312.5 711,-347.5 1028,-347.5 1028,-312.5 711,-312.5"/>
<text text-anchor="start" x="717.8501" y="-325.3" font-family="Arial Bold" font-size="18.00" fill="#000000">public.starsearch_threads</text>
<text text-anchor="start" x="923.8961" y="-325.3" font-family="Arial" font-size="14.00" fill="#000000"> </text>
<text text-anchor="start" x="927.7867" y="-325.3" font-family="Arial" font-size="14.00" fill="#666666">[BASE TABLE]</text>
<polygon fill="none" stroke="#000000" points="711,-282.5 711,-312.5 1028,-312.5 1028,-282.5 711,-282.5"/>
<text text-anchor="start" x="718" y="-293.9" font-family="Arial" font-size="14.00" fill="#000000">id </text>
<text text-anchor="start" x="732.7798" y="-293.9" font-family="Arial" font-size="14.00" fill="#666666">[uuid]</text>
<polygon fill="none" stroke="#000000" points="711,-252.5 711,-282.5 1028,-282.5 1028,-252.5 711,-252.5"/>
<text text-anchor="start" x="718" y="-263.9" font-family="Arial" font-size="14.00" fill="#000000">created_at </text>
<text text-anchor="start" x="788.028" y="-263.9" font-family="Arial" font-size="14.00" fill="#666666">[timestamp without time zone]</text>
<polygon fill="none" stroke="#000000" points="711,-222.5 711,-252.5 1028,-252.5 1028,-222.5 711,-222.5"/>
<text text-anchor="start" x="718" y="-233.9" font-family="Arial" font-size="14.00" fill="#000000">updated_at </text>
<text text-anchor="start" x="791.9326" y="-233.9" font-family="Arial" font-size="14.00" fill="#666666">[timestamp without time zone]</text>
<polygon fill="none" stroke="#000000" points="711,-192.5 711,-222.5 1028,-222.5 1028,-192.5 711,-192.5"/>
<text text-anchor="start" x="718" y="-203.9" font-family="Arial" font-size="14.00" fill="#000000">archived_at </text>
<text text-anchor="start" x="794.244" y="-203.9" font-family="Arial" font-size="14.00" fill="#666666">[timestamp without time zone]</text>
<polygon fill="none" stroke="#000000" points="711,-162.5 711,-192.5 1028,-192.5 1028,-162.5 711,-162.5"/>
<text text-anchor="start" x="718" y="-173.9" font-family="Arial" font-size="14.00" fill="#000000">deleted_at </text>
<text text-anchor="start" x="787.2566" y="-173.9" font-family="Arial" font-size="14.00" fill="#666666">[timestamp without time zone]</text>
<polygon fill="none" stroke="#000000" points="711,-132.5 711,-162.5 1028,-162.5 1028,-132.5 711,-132.5"/>
<text text-anchor="start" x="718" y="-143.9" font-family="Arial" font-size="14.00" fill="#000000">is_publicly_viewable </text>
<text text-anchor="start" x="848.6802" y="-143.9" font-family="Arial" font-size="14.00" fill="#666666">[boolean]</text>
<polygon fill="none" stroke="#000000" points="711,-102.5 711,-132.5 1028,-132.5 1028,-102.5 711,-102.5"/>
<text text-anchor="start" x="718" y="-113.9" font-family="Arial" font-size="14.00" fill="#000000">public_link </text>
<text text-anchor="start" x="787.23" y="-113.9" font-family="Arial" font-size="14.00" fill="#666666">[text]</text>
<polygon fill="none" stroke="#000000" points="711,-72.5 711,-102.5 1028,-102.5 1028,-72.5 711,-72.5"/>
<text text-anchor="start" x="718" y="-83.9" font-family="Arial" font-size="14.00" fill="#000000">title </text>
<text text-anchor="start" x="743.6676" y="-83.9" font-family="Arial" font-size="14.00" fill="#666666">[varchar(255)]</text>
<polygon fill="none" stroke="#000000" points="711,-42.5 711,-72.5 1028,-72.5 1028,-42.5 711,-42.5"/>
<text text-anchor="start" x="718" y="-53.9" font-family="Arial" font-size="14.00" fill="#000000">thread_summary </text>
<text text-anchor="start" x="826.9018" y="-53.9" font-family="Arial" font-size="14.00" fill="#666666">[text]</text>
</g>
<!-- public.starsearch_thread_history&#45;&gt;public.starsearch_threads -->
<g id="edge1" class="edge">
<title>public.starsearch_thread_history:starsearch_thread_id&#45;&gt;public.starsearch_threads:id</title>
<path fill="none" stroke="#000000" d="M591.8909,-695.3794C640.2367,-673.0632 616.6643,-481.0478 637,-427 660.344,-364.9567 644.7103,-297.5 711,-297.5"/>
<polygon fill="#000000" stroke="#000000" points="591.7778,-695.4036 581.0566,-693.1 586.8889,-696.4518 582,-697.5 582,-697.5 582,-697.5 586.8889,-696.4518 582.9434,-701.9 591.7778,-695.4036 591.7778,-695.4036"/>
<text text-anchor="start" x="6.8135" y="-707.5" font-family="Arial" font-size="10.00" fill="#000000">FOREIGN KEY (starsearch_thread_id) REFERENCES starsearch_threads(id) ON UPDATE CASCADE ON DELETE CASCADE</text>
</g>
<!-- public.starsearch_user_threads -->
<g id="node3" class="node">
<title>public.starsearch_user_threads</title>
<polygon fill="#efefef" stroke="transparent" points="689,-757.5 689,-792.5 1051,-792.5 1051,-757.5 689,-757.5"/>
<polygon fill="none" stroke="#000000" points="689,-757.5 689,-792.5 1051,-792.5 1051,-757.5 689,-757.5"/>
<text text-anchor="start" x="695.8447" y="-770.3" font-family="Arial Bold" font-size="18.00" fill="#000000">public.starsearch_user_threads</text>
<text text-anchor="start" x="946.9015" y="-770.3" font-family="Arial" font-size="14.00" fill="#000000"> </text>
<text text-anchor="start" x="950.7921" y="-770.3" font-family="Arial" font-size="14.00" fill="#666666">[BASE TABLE]</text>
<polygon fill="none" stroke="#000000" points="689,-727.5 689,-757.5 1051,-757.5 1051,-727.5 689,-727.5"/>
<text text-anchor="start" x="696" y="-738.9" font-family="Arial" font-size="14.00" fill="#000000">id </text>
<text text-anchor="start" x="710.7798" y="-738.9" font-family="Arial" font-size="14.00" fill="#666666">[uuid]</text>
<polygon fill="none" stroke="#000000" points="689,-697.5 689,-727.5 1051,-727.5 1051,-697.5 689,-697.5"/>
<text text-anchor="start" x="696" y="-708.9" font-family="Arial" font-size="14.00" fill="#000000">created_at </text>
<text text-anchor="start" x="766.028" y="-708.9" font-family="Arial" font-size="14.00" fill="#666666">[timestamp without time zone]</text>
<polygon fill="none" stroke="#000000" points="689,-667.5 689,-697.5 1051,-697.5 1051,-667.5 689,-667.5"/>
<text text-anchor="start" x="696" y="-678.9" font-family="Arial" font-size="14.00" fill="#000000">updated_at </text>
<text text-anchor="start" x="769.9326" y="-678.9" font-family="Arial" font-size="14.00" fill="#666666">[timestamp without time zone]</text>
<polygon fill="none" stroke="#000000" points="689,-637.5 689,-667.5 1051,-667.5 1051,-637.5 689,-637.5"/>
<text text-anchor="start" x="696" y="-648.9" font-family="Arial" font-size="14.00" fill="#000000">deleted_at </text>
<text text-anchor="start" x="765.2566" y="-648.9" font-family="Arial" font-size="14.00" fill="#666666">[timestamp without time zone]</text>
<polygon fill="none" stroke="#000000" points="689,-607.5 689,-637.5 1051,-637.5 1051,-607.5 689,-607.5"/>
<text text-anchor="start" x="696" y="-618.9" font-family="Arial" font-size="14.00" fill="#000000">starsearch_thread_id </text>
<text text-anchor="start" x="831.3688" y="-618.9" font-family="Arial" font-size="14.00" fill="#666666">[uuid]</text>
<polygon fill="none" stroke="#000000" points="689,-577.5 689,-607.5 1051,-607.5 1051,-577.5 689,-577.5"/>
<text text-anchor="start" x="696" y="-588.9" font-family="Arial" font-size="14.00" fill="#000000">user_id </text>
<text text-anchor="start" x="745.7882" y="-588.9" font-family="Arial" font-size="14.00" fill="#666666">[integer]</text>
</g>
<!-- public.starsearch_user_threads&#45;&gt;public.starsearch_threads -->
<g id="edge2" class="edge">
<title>public.starsearch_user_threads:starsearch_thread_id&#45;&gt;public.starsearch_threads:id</title>
<path fill="none" stroke="#000000" d="M678.839,-620.8773C653.6929,-611.5477 669.7195,-564.1378 689,-535 779.3324,-398.4844 937.6676,-527.5156 1028,-391 1050.9316,-356.3445 1069.5556,-297.5 1028,-297.5"/>
<polygon fill="#000000" stroke="#000000" points="679.1251,-620.9229 688.2903,-626.9437 684.0626,-621.7115 689,-622.5 689,-622.5 689,-622.5 684.0626,-621.7115 689.7097,-618.0563 679.1251,-620.9229 679.1251,-620.9229"/>
<text text-anchor="start" x="695.8135" y="-632.5" font-family="Arial" font-size="10.00" fill="#000000">FOREIGN KEY (starsearch_thread_id) REFERENCES starsearch_threads(id) ON UPDATE CASCADE ON DELETE CASCADE</text>
</g>
<!-- public.starsearch_workspace_threads -->
<g id="node4" class="node">
<title>public.starsearch_workspace_threads</title>
<polygon fill="#efefef" stroke="transparent" points="1156,-757.5 1156,-792.5 1569,-792.5 1569,-757.5 1156,-757.5"/>
<polygon fill="none" stroke="#000000" points="1156,-757.5 1156,-792.5 1569,-792.5 1569,-757.5 1156,-757.5"/>
<text text-anchor="start" x="1162.8414" y="-770.3" font-family="Arial Bold" font-size="18.00" fill="#000000">public.starsearch_workspace_threads</text>
<text text-anchor="start" x="1464.9048" y="-770.3" font-family="Arial" font-size="14.00" fill="#000000"> </text>
<text text-anchor="start" x="1468.7954" y="-770.3" font-family="Arial" font-size="14.00" fill="#666666">[BASE TABLE]</text>
<polygon fill="none" stroke="#000000" points="1156,-727.5 1156,-757.5 1569,-757.5 1569,-727.5 1156,-727.5"/>
<text text-anchor="start" x="1163" y="-738.9" font-family="Arial" font-size="14.00" fill="#000000">id </text>
<text text-anchor="start" x="1177.7798" y="-738.9" font-family="Arial" font-size="14.00" fill="#666666">[uuid]</text>
<polygon fill="none" stroke="#000000" points="1156,-697.5 1156,-727.5 1569,-727.5 1569,-697.5 1156,-697.5"/>
<text text-anchor="start" x="1163" y="-708.9" font-family="Arial" font-size="14.00" fill="#000000">created_at </text>
<text text-anchor="start" x="1233.028" y="-708.9" font-family="Arial" font-size="14.00" fill="#666666">[timestamp without time zone]</text>
<polygon fill="none" stroke="#000000" points="1156,-667.5 1156,-697.5 1569,-697.5 1569,-667.5 1156,-667.5"/>
<text text-anchor="start" x="1163" y="-678.9" font-family="Arial" font-size="14.00" fill="#000000">updated_at </text>
<text text-anchor="start" x="1236.9326" y="-678.9" font-family="Arial" font-size="14.00" fill="#666666">[timestamp without time zone]</text>
<polygon fill="none" stroke="#000000" points="1156,-637.5 1156,-667.5 1569,-667.5 1569,-637.5 1156,-637.5"/>
<text text-anchor="start" x="1163" y="-648.9" font-family="Arial" font-size="14.00" fill="#000000">deleted_at </text>
<text text-anchor="start" x="1232.2566" y="-648.9" font-family="Arial" font-size="14.00" fill="#666666">[timestamp without time zone]</text>
<polygon fill="none" stroke="#000000" points="1156,-607.5 1156,-637.5 1569,-637.5 1569,-607.5 1156,-607.5"/>
<text text-anchor="start" x="1163" y="-618.9" font-family="Arial" font-size="14.00" fill="#000000">starsearch_thread_id </text>
<text text-anchor="start" x="1298.3688" y="-618.9" font-family="Arial" font-size="14.00" fill="#666666">[uuid]</text>
<polygon fill="none" stroke="#000000" points="1156,-577.5 1156,-607.5 1569,-607.5 1569,-577.5 1156,-577.5"/>
<text text-anchor="start" x="1163" y="-588.9" font-family="Arial" font-size="14.00" fill="#000000">workspace_id </text>
<text text-anchor="start" x="1252.46" y="-588.9" font-family="Arial" font-size="14.00" fill="#666666">[uuid]</text>
</g>
<!-- public.starsearch_workspace_threads&#45;&gt;public.starsearch_threads -->
<g id="edge3" class="edge">
<title>public.starsearch_workspace_threads:starsearch_thread_id&#45;&gt;public.starsearch_threads:id</title>
<path fill="none" stroke="#000000" d="M1145.7202,-621.9425C1071.6739,-613.3289 1136.209,-506.6901 1103,-427 1077.4156,-365.6063 1094.5113,-297.5 1028,-297.5"/>
<polygon fill="#000000" stroke="#000000" points="1146.0147,-621.9584 1155.7563,-626.9934 1151.0073,-622.2292 1156,-622.5 1156,-622.5 1156,-622.5 1151.0073,-622.2292 1156.2437,-618.0066 1146.0147,-621.9584 1146.0147,-621.9584"/>
<text text-anchor="start" x="1162.8135" y="-606.5" font-family="Arial" font-size="10.00" fill="#000000">FOREIGN KEY (starsearch_thread_id) REFERENCES starsearch_threads(id) ON UPDATE CASCADE ON DELETE CASCADE</text>
</g>
</g>
</svg>
